<?xml version="1.0" encoding="UTF-8"?>
<svg version="1.1" xmlns="http://www.w3.org/2000/svg" width="2000" height="2000">
<path d="M0 0 C8.21436002 7.30165335 13.85950965 14.37295812 17.21484375 24.96875 C17.21484375 26.28875 17.21484375 27.60875 17.21484375 28.96875 C17.87871094 28.80890625 18.54257812 28.6490625 19.2265625 28.484375 C22.836824 27.86142792 26.37447849 27.73665824 30.02734375 27.71875 C30.77072998 27.71335205 31.51411621 27.7079541 32.2800293 27.70239258 C37.55979062 27.74871117 42.39141457 28.48610916 47.52734375 29.65625 C53.67141164 31.02102184 57.92090754 30.62569414 63.90625 28.7578125 C77.77341751 25.45064858 94.5862544 27.59506744 107.02734375 34.53125 C109.81083929 35.89136714 110.76179818 36.10272994 113.77734375 35.2109375 C115.65658283 34.31936668 117.51708605 33.38748852 119.359375 32.421875 C132.06230369 25.95745712 149.41265477 26.08608738 162.97265625 29.8125 C174.31076373 33.85596966 183.30014191 39.17184528 191.859375 47.6484375 C194.18443378 50.08478748 194.18443378 50.08478748 197.21484375 51.96875 C197.77429688 51.411875 198.33375 50.855 198.91015625 50.28125 C212.81171769 37.05018188 230.04676111 29.34023121 249.21484375 27.96875 C249.96121094 27.91460938 250.70757813 27.86046875 251.4765625 27.8046875 C256.81218221 27.61066497 261.50699611 28.40967196 266.71484375 29.59375 C273.24291788 31.00486906 277.88402514 30.856485 284.21484375 28.96875 C296.04125815 26.01723522 311.42044534 27.10503466 322.65234375 31.65625 C327.8322657 33.5646423 331.2886678 31.94930674 336.47949219 30.45751953 C350.35913105 26.60358144 365.42322094 26.3715424 379.21484375 30.96875 C381.32576938 30.46999728 381.32576938 30.46999728 383.52734375 29.59375 C396.06486225 24.91132599 411.61543148 25.76894591 424.21484375 29.96875 C424.15296875 29.02 424.09109375 28.07125 424.02734375 27.09375 C424.09091871 16.56149751 429.47938289 6.76776631 436.46484375 -0.84375 C447.82773977 -11.41099466 463.21151671 -12.7804575 478 -12.37890625 C488.97373974 -11.82030866 498.5587575 -8.94475434 507.21484375 -2.03125 C508.10171875 -1.433125 508.98859375 -0.835 509.90234375 -0.21875 C518.80637718 8.20398433 521.58273219 18.11120899 522.21484375 29.96875 C524.13296875 30.278125 524.13296875 30.278125 526.08984375 30.59375 C534.04696234 32.36339309 540.88084487 36.85033952 546.21484375 42.96875 C547.23578125 44.1134375 547.23578125 44.1134375 548.27734375 45.28125 C557.9766168 58.73508036 558.56287927 76.25388852 555.9921875 92.17578125 C553.75919928 103.07141724 549.06780285 110.21873231 541.21484375 117.96875 C540.33699219 118.84853516 540.33699219 118.84853516 539.44140625 119.74609375 C539.03664063 120.14957031 538.631875 120.55304688 538.21484375 120.96875 C538.6015625 121.38125 538.98828125 121.79375 539.38671875 122.21875 C545.56252212 129.06716562 548.80781816 135.85934724 550.21484375 144.96875 C550.35019531 145.84015625 550.48554687 146.7115625 550.625 147.609375 C552.31414358 161.82147963 550.55013177 177.85444022 542.08984375 189.71875 C533.54471285 199.95090245 522.23749646 204.70441479 509.21484375 205.96875 C485.898255 207.39160217 463.23799087 203.29653247 445.02734375 187.71875 C432.47183752 175.95042285 424.7347512 159.00028804 424.13720703 141.72412109 C424.11700208 139.32564523 424.12721934 136.92966474 424.15234375 134.53125 C424.15685547 133.70431641 424.16136719 132.87738281 424.16601562 132.02539062 C424.17768564 130.00647854 424.19561657 127.98760426 424.21484375 125.96875 C423.47234375 126.29875 422.72984375 126.62875 421.96484375 126.96875 C416.70268855 128.37199139 411.62906005 128.12644562 406.21484375 127.96875 C406.22008057 128.7436377 406.22531738 129.51852539 406.23071289 130.31689453 C406.52420477 180.29967652 406.52420477 180.29967652 393.21484375 193.96875 C380.66422146 204.64650811 365.24584333 206.89831966 349.21484375 205.96875 C342.82716529 205.16539647 336.41267981 204.08700778 330.59765625 201.25390625 C327.37235571 199.68547891 327.37235571 199.68547891 324.484375 200.515625 C323.26814453 201.11117188 323.26814453 201.11117188 322.02734375 201.71875 C315.02641376 205.02627598 309.28996763 205.15159454 301.58984375 205.15625 C300.54699219 205.16849609 299.50414062 205.18074219 298.4296875 205.19335938 C292.54077676 205.2043873 287.15656069 204.77959043 281.43115234 203.36914062 C276.79433268 202.53146886 272.2008499 203.56190504 267.640625 204.49609375 C243.72612661 207.79558555 225.52654396 201.69915051 205.21484375 189.96875 C204.74046875 190.67 204.26609375 191.37125 203.77734375 192.09375 C196.47233761 200.28961055 185.49016156 204.99150332 174.57421875 205.87109375 C173.40632812 205.91943359 173.40632812 205.91943359 172.21484375 205.96875 C170.49007813 206.06349609 170.49007813 206.06349609 168.73046875 206.16015625 C155.4523498 206.66367811 142.42445678 204.56637661 131.21484375 196.96875 C130.75335937 197.29488281 130.291875 197.62101562 129.81640625 197.95703125 C122.31704808 202.98130481 114.240838 205.47536768 105.21484375 205.96875 C104.06242188 206.03320312 102.91 206.09765625 101.72265625 206.1640625 C90.71456982 206.57116021 79.07072648 205.58258218 69.42578125 199.796875 C66.40740941 197.62540116 66.40740941 197.62540116 63.40234375 198.46875 C62.35046875 198.96375 61.29859375 199.45875 60.21484375 199.96875 C43.18693671 207.55029568 23.8130968 208.51456154 6.22265625 201.83203125 C2.38056335 200.02499349 -0.74124628 198.25777335 -3.59765625 195.09375 C-4.31953125 194.3925 -5.04140625 193.69125 -5.78515625 192.96875 C-10.43677902 193.24533298 -14.25598015 195.63525999 -18.28515625 197.78125 C-42.95082088 210.46226034 -71.45412185 211.11872598 -97.66015625 202.71875 C-113.02050738 197.21190071 -126.60640992 187.3557192 -137.078125 174.90234375 C-138.64730478 172.8816168 -138.64730478 172.8816168 -140.78515625 171.96875 C-141.28982422 173.67224609 -141.28982422 173.67224609 -141.8046875 175.41015625 C-144.39258968 183.16477711 -148.03646338 190.50125146 -151.47265625 197.90625 C-152.92376228 201.04861017 -154.37210107 204.19224247 -155.8203125 207.3359375 C-156.17111877 208.09626785 -156.52192505 208.85659821 -156.88336182 209.63996887 C-159.13022556 214.5177297 -161.3222504 219.41579002 -163.45996094 224.3425293 C-169.52736835 238.31845619 -175.79447052 249.36302113 -190.171875 256.00390625 C-203.66353346 260.98513142 -217.65005319 259.01028621 -230.62109375 253.390625 C-244.44651085 246.73283195 -254.76071603 238.41218262 -260.05859375 223.578125 C-265.35231415 204.56626896 -255.5164891 186.78748258 -247.95849609 169.78271484 C-247.37769287 168.38980225 -247.37769287 168.38980225 -246.78515625 166.96875 C-246.33462891 165.99429932 -245.88410156 165.01984863 -245.41992188 164.01586914 C-244.52984515 159.74315853 -245.85616259 158.14151481 -248.16796875 154.50390625 C-248.53864471 153.90750839 -248.90932068 153.31111053 -249.29122925 152.69664001 C-250.47863866 150.79548257 -251.69330033 148.9136644 -252.91015625 147.03125 C-253.70634002 145.77008584 -254.50063176 144.50772511 -255.29296875 143.24414062 C-256.76327631 140.90091094 -258.24576328 138.5675673 -259.73876953 136.23852539 C-261.85228742 132.8614859 -263.83063202 129.43952618 -265.78515625 125.96875 C-266.83703125 126.29875 -267.88890625 126.62875 -268.97265625 126.96875 C-272.89611607 127.97388672 -276.54209502 128.07201968 -280.5859375 128.03125 C-281.74907471 128.02222656 -282.91221191 128.01320313 -284.1105957 128.00390625 C-285.43450317 127.98650391 -285.43450317 127.98650391 -286.78515625 127.96875 C-286.7694458 129.08733398 -286.75373535 130.20591797 -286.73754883 131.35839844 C-286.68268575 135.56291318 -286.64860401 139.76739721 -286.62036133 143.97216797 C-286.60540176 145.78179265 -286.58502668 147.5913819 -286.55883789 149.40087891 C-286.32782421 165.78926134 -287.37716588 180.95431437 -298.91015625 193.78125 C-309.77810219 203.67630122 -325.1600151 206.65809674 -339.46484375 206.25390625 C-348.02670823 205.51859318 -355.90692474 204.20315874 -363.41015625 199.90625 C-366.75332465 198.26158736 -368.04321335 197.74201711 -371.6484375 198.84375 C-373.78145251 199.92787453 -375.8964992 201.0478014 -377.99609375 202.1953125 C-388.30505225 207.47031519 -402.3699678 208.61490993 -413.78515625 208.96875 C-414.92726563 209.00871094 -416.069375 209.04867188 -417.24609375 209.08984375 C-443.31044265 209.5543028 -470.35183035 203.81004498 -489.8203125 185.39794922 C-495.26357186 180.06783278 -499.71606397 174.67207116 -503.515625 168.015625 C-504.62253293 165.83156972 -504.62253293 165.83156972 -506.78515625 164.96875 C-507.04296875 165.80921875 -507.30078125 166.6496875 -507.56640625 167.515625 C-513.02213266 182.9735165 -521.86622339 194.27731462 -536.7421875 201.47631836 C-542.62751119 204.12485309 -548.32964074 205.52993097 -554.78515625 205.96875 C-556.06390625 206.071875 -557.34265625 206.175 -558.66015625 206.28125 C-572.83378923 205.78135008 -586.21859621 200.59017237 -596.3515625 190.62915039 C-606.88650767 179.11236694 -612.82371923 163.02031027 -619.53515625 149.15625 C-621.20388813 145.72372882 -622.8745481 142.29215203 -624.54563904 138.86077881 C-625.65146114 136.59004557 -626.75649515 134.31892837 -627.86073303 132.04742432 C-632.07942748 123.38034186 -636.36795171 114.74977883 -640.70367432 106.14067078 C-644.50156634 98.58812672 -648.15352773 90.97079695 -651.7755127 83.3326416 C-654.50022609 77.58837545 -657.32562994 71.90519941 -660.21508789 66.2421875 C-676.65780094 33.97346732 -676.65780094 33.97346732 -671.28515625 15.84375 C-665.45922406 0.48999121 -653.54159978 -8.1434291 -639.12475586 -14.82519531 C-627.52137551 -19.96543447 -613.32503298 -21.69930959 -601.22265625 -17.03125 C-577.21270835 -5.02627605 -569.14296566 24.96508775 -558.78515625 47.96875 C-555.49278623 40.94139164 -552.20675189 33.91185669 -548.99121094 26.84893799 C-547.745328 24.1160043 -546.4896279 21.3876334 -545.23291016 18.65966797 C-544.59700025 17.27350886 -543.96521086 15.88545256 -543.33740234 14.49560547 C-537.1413583 0.7965643 -530.20667718 -11.17980668 -515.84765625 -17.46875 C-502.24980949 -21.86805336 -486.75102069 -19.50541397 -474.16015625 -13.30078125 C-461.74611416 -6.7925616 -450.85974282 2.13634873 -445.91015625 15.59375 C-444.73295475 19.51087079 -444.52540667 22.89933991 -444.78515625 26.96875 C-443.90472656 26.81019531 -443.02429688 26.65164063 -442.1171875 26.48828125 C-419.70799459 23.32390312 -392.52319453 24.91522129 -373.78515625 38.96875 C-371.77720677 37.99816688 -369.84384368 37.00553913 -367.953125 35.8203125 C-354.18630806 27.29411818 -337.24834808 25.69331398 -321.64208984 29.20385742 C-321.00867676 29.35314697 -320.37526367 29.50243652 -319.72265625 29.65625 C-314.29057972 30.90533712 -310.81068428 31.16116042 -305.71484375 28.828125 C-294.58075521 23.86962403 -279.130837 26.95613319 -267.78515625 29.96875 C-266.92277344 30.35289062 -266.06039063 30.73703125 -265.171875 31.1328125 C-260.25931533 32.85341441 -256.10197464 30.30548371 -251.53515625 28.40625 C-241.04258604 24.60778544 -229.11492931 24.27490566 -218.41015625 27.734375 C-209.83058531 31.7688161 -202.76522626 37.93074226 -197.78515625 45.96875 C-197.16640625 46.95875 -196.54765625 47.94875 -195.91015625 48.96875 C-195.53890625 49.62875 -195.16765625 50.28875 -194.78515625 50.96875 C-194.23988281 50.11603516 -194.23988281 50.11603516 -193.68359375 49.24609375 C-185.83294544 37.18830314 -178.30449988 29.60437618 -163.73828125 26.4296875 C-156.595025 25.31473481 -149.89804989 26.03837151 -142.78515625 26.96875 C-142.31207031 26.07414063 -141.83898437 25.17953125 -141.3515625 24.2578125 C-136.99652498 16.21533871 -132.33356942 9.4423852 -125.78515625 2.96875 C-124.96402344 2.12570312 -124.14289062 1.28265625 -123.296875 0.4140625 C-91.68032773 -30.40621617 -32.73463889 -27.58835044 0 0 Z M249.21484375 112.96875 C248.5233305 117.27149909 248.6992697 119.17820312 251.08984375 122.84375 C253.61349027 125.36739652 254.48221032 125.90362703 258.02734375 126.21875 C261.60639094 125.93804042 263.35734392 125.09146416 266.21484375 122.96875 C267.83072754 119.73698243 267.78935782 116.46259717 267.21484375 112.96875 C265.22562489 109.9849217 263.82981807 108.36598159 260.27734375 107.4921875 C255.01354927 107.11335381 252.26425984 108.48992012 249.21484375 112.96875 Z " fill="#FF66C4" transform="translate(684.78515625,907.03125)"/>
<path d="M0 0 C37.95 0 75.9 0 115 0 C115 62.7 115 125.4 115 190 C102.13 190 89.26 190 76 190 C76 164.92 76 139.84 76 114 C63.79 114 51.58 114 39 114 C39 139.08 39 164.16 39 190 C26.13 190 13.26 190 0 190 C0 127.3 0 64.6 0 0 Z M39 38 C39 50.21 39 62.42 39 75 C51.21 75 63.42 75 76 75 C76 62.79 76 50.58 76 38 C63.79 38 51.58 38 39 38 Z " fill="#FFFFFF" transform="translate(1545,923)"/>
<path d="M0 0 C0.69480469 -0.020625 1.38960937 -0.04125 2.10546875 -0.0625 C6.88761665 -0.09852371 10.06588565 0.74236936 14.125 3.25 C17.60322112 6.72822112 18.67125711 9.37226395 19.125 14.25 C19.5375 13.73050781 19.95 13.21101562 20.375 12.67578125 C25.13412705 6.92871042 29.96667492 2.63610836 37.125 0.25 C48.66471713 -0.47735187 58.9489848 -0.04629341 68.23046875 7.49609375 C71.46821488 10.49351233 74.54146309 13.66534254 77.125 17.25 C77.125 17.91 77.125 18.57 77.125 19.25 C77.785 19.25 78.445 19.25 79.125 19.25 C79.351875 18.693125 79.57875 18.13625 79.8125 17.5625 C84.55179094 9.21232073 94.2878157 3.33901578 103.125 0.25 C114.62993649 -1.24182268 124.33327657 0.40962738 133.875 6.9375 C146.34712864 16.61657448 150.83356172 30.10770934 152.84518433 45.41207886 C153.77615522 54.85408742 153.60246796 64.39598324 153.57104492 73.87329102 C153.5624491 77.83596354 153.59153033 81.79723157 153.62304688 85.75976562 C153.62465721 88.29947874 153.62408458 90.83919439 153.62109375 93.37890625 C153.63232773 94.55296524 153.64356171 95.72702423 153.65513611 96.93666077 C153.59660863 103.8352692 152.87365505 108.39985883 149.125 114.25 C142.00433643 119.76851427 132.34778531 118.97963982 123.79296875 117.9765625 C120.71641848 117.26607377 119.07544856 116.20178778 116.8125 114 C112.66118193 107.23488908 112.83104226 100.81393316 112.81640625 93.09765625 C112.79125132 90.68814857 112.76585322 88.27864342 112.74023438 85.86914062 C112.71148319 82.08602526 112.68745268 78.30295368 112.66870117 74.51977539 C112.64701982 70.85800945 112.60758441 67.1967473 112.56640625 63.53515625 C112.56623253 61.84580711 112.56623253 61.84580711 112.5660553 60.12232971 C112.4900474 54.07518233 112.14487158 49.54766632 109.125 44.25 C105.87400178 41.3684334 103.95204298 40.33861175 99.625 39.875 C94.65043595 40.33430015 94.65043595 40.33430015 90.125 42.25 C86.37645609 49.08202156 86.69941653 56.82588308 86.71875 64.38671875 C86.70249573 66.24403374 86.70249573 66.24403374 86.68591309 68.13887024 C86.64601878 72.73910036 86.63189141 77.33919979 86.61968994 81.9395752 C86.60629146 86.46384067 86.5709346 90.98761954 86.53125 95.51171875 C86.53427124 96.69932297 86.53729248 97.88692719 86.54040527 99.11051941 C86.44524556 109.57301667 86.44524556 109.57301667 83.125 114.25 C75.92455858 119.72233548 66.79930735 119.2659299 58.125 118.25 C54.50969203 117.38945486 53.14205715 116.60330457 50.125 114.25 C46.47562489 107.97002701 46.7153619 101.97858031 46.75390625 94.8515625 C46.73652435 92.40885276 46.71893996 89.96614446 46.70117188 87.5234375 C46.69110639 83.69658761 46.68750231 79.86983132 46.68920898 76.04296875 C46.68562706 72.33305354 46.658241 68.62385036 46.62890625 64.9140625 C46.63708878 63.77941559 46.6452713 62.64476868 46.65370178 61.47573853 C46.59112983 54.7552029 45.94344881 48.95596798 42.125 43.25 C37.45323929 40.13549286 32.59064986 40.53355671 27.125 41.25 C22.72498735 44.2420086 21.38929988 47.19143182 20.125 52.25 C19.82472762 56.45758188 19.82408576 60.65802479 19.81640625 64.875 C19.79125449 67.38021074 19.76585635 69.88541902 19.74023438 72.390625 C19.7114606 76.32746791 19.68743211 80.26426821 19.66870117 84.20117188 C19.64705308 88.00933368 19.60762326 91.8170071 19.56640625 95.625 C19.56629044 96.8001416 19.56617462 97.9752832 19.5660553 99.18603516 C19.44041729 109.55958972 19.44041729 109.55958972 16.125 114.25 C8.92455858 119.72233548 -0.20069265 119.2659299 -8.875 118.25 C-12.49030797 117.38945486 -13.85794285 116.60330457 -16.875 114.25 C-19.94181353 108.64525951 -20.31162036 103.95791104 -20.27905273 97.64624023 C-20.28591599 96.70875946 -20.29277924 95.77127869 -20.29985046 94.8053894 C-20.31807295 91.72296785 -20.31428824 88.64105733 -20.30859375 85.55859375 C-20.31315691 83.40820653 -20.31846289 81.25782078 -20.32447815 79.10743713 C-20.3333997 74.60777854 -20.33099597 70.10829754 -20.32104492 65.60864258 C-20.30954188 59.84612831 -20.32979242 54.0842256 -20.35896206 48.32179165 C-20.3773151 43.88393776 -20.3770336 39.44623078 -20.37132454 35.00834846 C-20.37117129 32.88369958 -20.37721822 30.75904075 -20.38961601 28.63442802 C-20.40451128 25.66401707 -20.39386021 22.69474092 -20.37670898 19.72436523 C-20.38637695 18.84991257 -20.39604492 17.9754599 -20.40600586 17.07450867 C-20.34043561 11.64503692 -19.46429731 8.57217747 -15.875 4.25 C-11.11383973 -0.06480149 -6.20095577 0.0455116 0 0 Z " fill="#FFFDFE" transform="translate(716.875,964.75)"/>
<path d="M0 0 C37.95 0 75.9 0 115 0 C115 12.54 115 25.08 115 38 C89.92 38 64.84 38 39 38 C39 75.29 39 112.58 39 151 C64.08 151 89.16 151 115 151 C115 163.54 115 176.08 115 189 C114 190 114 190 112.09657192 190.12304783 C111.25681851 190.12212604 110.41706511 190.12120424 109.55186462 190.12025452 C108.59328269 190.12163201 107.63470076 190.12300951 106.64707088 190.12442875 C105.58267568 190.12083064 104.51828047 190.11723253 103.42163086 190.11352539 C102.29152116 190.11364593 101.16141146 190.11376646 99.99705601 190.11389065 C96.31963226 190.1131411 92.64225849 190.10551097 88.96484375 190.09765625 C86.70218938 190.09618696 84.43953466 190.09516617 82.17687988 190.09460449 C73.76374809 190.0893501 65.35062356 190.07538904 56.9375 190.0625 C38.148125 190.041875 19.35875 190.02125 0 190 C0 127.3 0 64.6 0 0 Z " fill="#FFFFFF" transform="translate(1394,923)"/>
<path d="M0 0 C37.62 0 75.24 0 114 0 C114 12.54 114 25.08 114 38 C89.25 38 64.5 38 39 38 C39 75.29 39 112.58 39 151 C63.75 151 88.5 151 114 151 C114 163.87 114 176.74 114 190 C76.38 190 38.76 190 0 190 C0 127.3 0 64.6 0 0 Z " fill="#FFFFFF" transform="translate(1829,923)"/>
<path d="M0 0 C6.81372004 6.0356828 6.81372004 6.0356828 7.5703125 11.0859375 C7.33634463 19.42104281 1.51391545 25.79420167 -3.9921875 31.5625 C-7.95010744 35.07065631 -11.24720891 35.40543331 -16.33984375 35.34765625 C-20.51984935 34.74274487 -23.42734201 32.49119753 -26.7421875 30 C-34.57409261 24.33403257 -40.03235811 23.13534612 -49.7421875 24 C-53.88356766 25.39659231 -56.29060315 27.32262348 -58.7421875 31 C-59.28844675 34.39255742 -59.26908424 37.60504675 -58.7421875 41 C-53.31099859 48.50781996 -45.10992989 49.68712702 -36.5546875 51.25 C-28.56500055 52.81383507 -20.88351597 54.67313234 -13.2421875 57.5 C-12.49686768 57.77231445 -11.75154785 58.04462891 -10.98364258 58.32519531 C0.12420501 62.62337801 8.26429486 69.04534289 13.43359375 79.9453125 C13.70558594 80.62335938 13.97757813 81.30140625 14.2578125 82 C14.61617187 82.82757812 14.97453125 83.65515625 15.34375 84.5078125 C16.67456115 89.59219354 16.58638637 94.51634758 16.5703125 99.75 C16.58642578 100.78382812 16.60253906 101.81765625 16.61914062 102.8828125 C16.62724804 115.75738653 12.27693325 125.75015892 5.0078125 136.25 C-9.45858745 150.71639995 -27.90937842 155.2724667 -47.65942383 155.3190918 C-55.60617391 155.2116002 -62.30510502 153.94182244 -69.7421875 151 C-71.03769531 150.49146484 -71.03769531 150.49146484 -72.359375 149.97265625 C-84.72853459 144.42036576 -96.35012655 134.90767237 -101.91796875 122.34765625 C-103.03043232 119.1789804 -103.25916784 117.36037222 -102.7421875 114 C-99.31185674 107.10150394 -93.72175724 100.48978487 -86.7421875 97 C-81.51893941 96.35108323 -77.14807243 96.59225481 -72.61328125 99.53515625 C-69.35099198 102.08914054 -66.34986951 104.92774419 -63.3125 107.7421875 C-54.21840479 115.73061763 -47.82877683 117.76890133 -35.7421875 117 C-31.75143087 116.04825705 -28.25205973 114.3464963 -25.7421875 111 C-24.19714388 106.36486914 -24.130409 101.8359634 -24.7421875 97 C-29.76735969 90.46727616 -40.22194695 88.81582504 -47.9296875 87.125 C-64.12327612 83.52900765 -83.14048447 77.26603744 -92.7421875 63 C-99.46327408 51.22948171 -101.65440823 37.96186848 -99.08984375 24.6015625 C-95.25757262 10.75275437 -87.46078476 0.09722129 -75.1796875 -7.25 C-52.45833082 -20.02378807 -20.18680888 -15.90841058 0 0 Z " fill="#FFFDFE" transform="translate(665.7421875,930)"/>
<path d="M0 0 C1.66796875 1.3125 1.66796875 1.3125 3.85546875 3.625 C3.85546875 4.285 3.85546875 4.945 3.85546875 5.625 C4.51546875 5.625 5.17546875 5.625 5.85546875 5.625 C5.89671875 4.738125 5.93796875 3.85125 5.98046875 2.9375 C7.19297097 -1.65268697 9.00295514 -2.67824047 12.85546875 -5.375 C16.83941751 -6.70298292 20.4960115 -6.59832082 24.66796875 -6.625 C25.46267578 -6.645625 26.25738281 -6.66625 27.07617188 -6.6875 C32.06890885 -6.72053713 35.62752265 -6.31295963 39.85546875 -3.375 C44.21604845 1.76637632 44.42754031 5.75892373 44.35717773 12.19116211 C44.36528221 13.60938515 44.36528221 13.60938515 44.37355042 15.05625916 C44.38602553 18.1719422 44.3695531 21.28669894 44.3515625 24.40234375 C44.35171753 26.57418364 44.35320715 28.74602381 44.35597229 30.91786194 C44.35735579 35.4664434 44.34480713 40.01470937 44.32202148 44.56323242 C44.29365426 50.38502142 44.29637041 56.20628564 44.3091116 62.02811337 C44.31607723 66.51233884 44.30826903 70.99644369 44.29585457 75.48065376 C44.2913475 77.62679138 44.29099674 79.77294197 44.29491997 81.91908073 C44.29784037 84.92280341 44.28128451 87.92581117 44.25952148 90.92944336 C44.26402313 91.81122253 44.26852478 92.69300171 44.27316284 93.60150146 C44.20822075 99.01434369 43.44867543 102.83954902 40.85546875 107.625 C35.83625273 111.41264913 30.38882425 111.10878097 24.35546875 111.0625 C23.43121094 111.08248047 22.50695312 111.10246094 21.5546875 111.12304688 C15.83587059 111.11895616 12.31297687 110.56600321 7.85546875 106.625 C5.98046875 103.375 5.98046875 103.375 4.85546875 100.625 C4.37078125 101.09550781 3.88609375 101.56601563 3.38671875 102.05078125 C2.71640625 102.67339844 2.04609375 103.29601563 1.35546875 103.9375 C0.70578125 104.55238281 0.05609375 105.16726563 -0.61328125 105.80078125 C-7.05557554 110.44360754 -13.61023323 111.18084449 -21.39453125 111.125 C-22.32040039 111.11927979 -23.24626953 111.11355957 -24.20019531 111.10766602 C-35.99515966 110.80091432 -44.464284 106.43262981 -53.14453125 98.625 C-53.96824219 97.90570312 -54.79195312 97.18640625 -55.640625 96.4453125 C-67.61807014 85.32470134 -74.40099919 71.08111684 -75.3046875 54.7265625 C-75.7521288 38.34632 -70.29026854 24.62698564 -59.62890625 12.23046875 C-43.61538631 -4.5635844 -21.25952141 -13.63087711 0 0 Z M-25.14453125 48.625 C-25.8360445 52.92774909 -25.6601053 54.83445312 -23.26953125 58.5 C-20.74588473 61.02364652 -19.87716468 61.55987703 -16.33203125 61.875 C-12.75298406 61.59429042 -11.00203108 60.74771416 -8.14453125 58.625 C-6.52864746 55.39323243 -6.57001718 52.11884717 -7.14453125 48.625 C-9.13375011 45.6411717 -10.52955693 44.02223159 -14.08203125 43.1484375 C-19.34582573 42.76960381 -22.09511516 44.14617012 -25.14453125 48.625 Z " fill="#FFFEFE" transform="translate(959.14453125,971.375)"/>
<path d="M0 0 C5.61981925 4.64138088 8.45378904 11.40563571 11.4375 17.875 C11.94845215 18.96087402 12.4594043 20.04674805 12.98583984 21.16552734 C17.73792868 31.31272693 22.36595038 41.5188416 26.98095703 51.72900391 C32.97098692 64.97885292 39.06984725 78.17760752 45.18603516 91.36962891 C45.92220359 92.95995952 46.6583691 94.55029148 47.39453125 96.140625 C47.73030685 96.86311432 48.06608246 97.58560364 48.41203308 98.32998657 C50.04140103 101.85168218 51.60365566 105.37909825 53 109 C53.42410156 108.08976074 53.84820312 107.17952148 54.28515625 106.24169922 C57.32487592 99.72099258 60.37141864 93.20367068 63.4375 86.6953125 C69.63769719 73.5290037 75.78878309 60.34303157 81.80154419 47.08990479 C82.74444218 45.01224655 83.68931964 42.93549771 84.63452148 40.85888672 C87.52069554 34.51098265 90.37946393 28.15368008 93.17578125 21.765625 C93.6665918 20.65832031 94.15740234 19.55101562 94.66308594 18.41015625 C95.56350792 16.3768237 96.45189588 14.33809689 97.32519531 12.29296875 C99.77513309 6.79593321 101.86094898 3.25809117 107 0 C113.92903375 -1.7993136 120.89597697 0.74916038 127 4 C131.06937969 6.6063084 134.30441216 8.95661824 137 13 C139.41711706 28.84554519 124.64977471 48.90323985 117.75 62.5625 C111.07742686 75.79225592 104.45773033 89.03679296 98.09254456 102.41758728 C93.36417763 112.35496108 88.55460559 122.2507155 83.6730957 132.11376953 C82.66815568 134.15073424 81.66895907 136.19054092 80.67504883 138.23291016 C79.20692317 141.24801889 77.72077256 144.25361659 76.23046875 147.2578125 C75.79284714 148.16604767 75.35522552 149.07428284 74.90434265 150.01004028 C71.57033018 156.65686851 68.31465344 160.15144327 61.75 163.8125 C55.5053651 165.78996772 49.72613037 166.11533598 43.6875 163.3125 C37.84324799 160.23190729 34.45325278 155.51535533 31.67578125 149.66015625 C30.98247112 148.22484845 30.28784722 146.79017488 29.59228516 145.35595703 C29.19301819 144.52638489 28.79375122 143.69681274 28.38238525 142.84210205 C25.84412232 137.62358408 23.22413507 132.44562351 20.61767197 127.26093674 C18.89469712 123.83126597 17.17708106 120.39891322 15.45898438 116.96679688 C13.32795431 112.71057266 11.19640253 108.45461368 9.06225586 104.19995117 C1.79066194 89.70193857 -5.44758421 75.19621784 -12.40533447 60.54408264 C-15.85980899 53.26948645 -19.4249384 46.05974899 -23.0625 38.875 C-24.15943062 36.70667848 -25.25455889 34.53744398 -26.34765625 32.3671875 C-26.81179932 31.45050293 -27.27594238 30.53381836 -27.75415039 29.58935547 C-30.21995984 24.46445344 -32.33240279 19.76663926 -31 14 C-25.53774752 4.06354754 -11.1897908 -3.58888248 0 0 Z " fill="#FFFDFE" transform="translate(73,918)"/>
<path d="M0 0 C1.68512695 -0.00483398 1.68512695 -0.00483398 3.40429688 -0.00976562 C18.53950503 0.08799556 30.82161635 4.61106129 41.75390625 15.19140625 C51.42759587 25.5336878 54.44229916 37.10790512 54.1171875 50.87890625 C53.72211707 58.63828536 51.60250364 63.99642384 45.875 69.3125 C41.18105659 73.19456851 36.99832389 74.566033 30.9206543 74.53955078 C29.75982834 74.53939972 28.59900238 74.53924866 27.40299988 74.53909302 C26.16012711 74.52877045 24.91725433 74.51844788 23.63671875 74.5078125 C21.71627495 74.50356766 21.71627495 74.50356766 19.7570343 74.49923706 C16.36546925 74.4916278 12.9740775 74.47200293 9.58258057 74.4498291 C6.11692651 74.42931206 2.65124425 74.42022286 -0.81445312 74.41015625 C-7.60554366 74.38811492 -14.39650612 74.35465129 -21.1875 74.3125 C-17.70522587 81.59452055 -13.61024332 84.73539516 -6.12109375 87.55078125 C4.28258488 90.25213589 15.58034956 88.32864797 25.37890625 84.2421875 C29.26144819 82.75896923 32.73028219 82.52826605 36.8125 83.3125 C41.64195995 85.88317144 44.95590087 90.08127425 47.15234375 95.03515625 C48.81465982 100.76965488 48.71002679 106.2052632 46.375 111.6875 C36.87809997 121.41603173 21.94233522 123.18005496 8.89453125 123.48046875 C-11.16688244 123.65619744 -30.02699053 121.56066913 -45.44140625 107.21484375 C-58.80050594 92.84177064 -63.90659967 75.42789189 -63.5 56.1796875 C-62.74151234 40.09342848 -55.81023106 26.2968258 -44.1875 15.3125 C-30.93160151 4.46676487 -17.02737513 -0.24677355 0 0 Z " fill="#FFFDFE" transform="translate(260.1875,962.6875)"/>
<path d="M0 0 C12.54 0 25.08 0 38 0 C38 49.83 38 99.66 38 151 C63.08 151 88.16 151 114 151 C114 163.87 114 176.74 114 190 C76.38 190 38.76 190 0 190 C0 127.3 0 64.6 0 0 Z " fill="#FFFFFF" transform="translate(1697,923)"/>
<path d="M0 0 C4.44317294 3.29917589 7.1122885 6.26331658 9.8828125 11.12890625 C10.21943405 11.71192001 10.5560556 12.29493378 10.90287781 12.89561462 C11.98742818 14.77876732 13.05596802 16.67050325 14.125 18.5625 C14.87454315 19.86796471 15.62545014 21.17264727 16.37768555 22.4765625 C17.88180047 25.08502194 19.38137864 27.69599672 20.87744141 30.30908203 C23.80113993 35.40532081 26.79542874 40.45858054 29.8125 45.5 C30.28510254 46.29865479 30.75770508 47.09730957 31.24462891 47.92016602 C31.68597168 48.65807373 32.12731445 49.39598145 32.58203125 50.15625 C32.95561768 50.78337891 33.3292041 51.41050781 33.71411133 52.05664062 C35.32894692 54.49713642 37.14792068 56.73632033 39 59 C39.50861572 57.86159668 40.01723145 56.72319336 40.54125977 55.55029297 C42.45971623 51.25853989 44.38224699 46.96862161 46.3059082 42.67919922 C47.13218677 40.83528322 47.95741283 38.99089514 48.78149414 37.14599609 C51.49023218 31.08303351 54.22936665 25.0349235 57 19 C57.32989929 18.27462036 57.65979858 17.54924072 57.99969482 16.80187988 C58.88818323 14.86219694 59.79699037 12.93373848 60.71484375 11.0078125 C61.4572229 9.42830811 61.4572229 9.42830811 62.21459961 7.81689453 C64.45512256 4.28193572 66.59049476 2.43153808 70 0 C74.69166756 -0.5761697 77.72500459 0.18038657 82 2 C82.01417969 2.81339844 82.02835938 3.62679687 82.04296875 4.46484375 C82.48736031 15.1422517 84.58074706 25.84469432 89.22265625 35.55859375 C91.09601175 41.44224796 88.34798676 47.0939277 85.82421875 52.390625 C85.50335297 53.08362198 85.18248718 53.77661896 84.85189819 54.49061584 C84.16341012 55.97506567 83.47080584 57.4576122 82.77444458 58.93838501 C81.29294493 62.08910387 79.83177481 65.24911479 78.3691864 68.40864563 C77.62780276 70.00962102 76.88537967 71.61011547 76.141922 73.21012878 C73.04422451 79.88019499 70.03269414 86.58456025 67.0625 93.3125 C66.10694766 95.47143244 65.15121263 97.63028403 64.1953125 99.7890625 C63.69418945 100.92118164 63.19306641 102.05330078 62.67675781 103.21972656 C58.55310039 112.52424586 54.40249003 121.81697534 50.23144531 131.1003418 C49.87268311 131.89884048 49.5139209 132.69733917 49.14428711 133.52003479 C48.43235256 135.10443914 47.72027736 136.6887803 47.00805664 138.27305603 C44.8672976 143.04260602 42.76251585 147.82596859 40.6796875 152.62109375 C39.72401621 154.78908801 38.76829179 156.95705886 37.8125 159.125 C37.40378662 160.08946045 36.99507324 161.0539209 36.57397461 162.04760742 C34.18161227 167.41816623 32.36126399 170.40168381 27 173 C18.94939627 174.24923161 11.38350411 170.97045079 4.74609375 166.47265625 C1.70628204 163.97861449 -0.75378803 161.80929743 -2 158 C-1.87410682 150.53873073 1.1032811 144.31609404 4.0625 137.5625 C4.55403564 136.4175708 5.04557129 135.2726416 5.55200195 134.09301758 C8.75065163 126.69428882 12.06783428 119.35511958 15.71313477 112.16430664 C18.12641794 107.2774027 18.12641794 107.2774027 18 102 C16.61265324 99.0913361 14.90924248 96.40814781 13.1875 93.6875 C12.08453426 91.89799955 10.98307931 90.10756739 9.8828125 88.31640625 C9.26825195 87.32141113 8.65369141 86.32641602 8.02050781 85.30126953 C4.55337265 79.63638292 1.17653019 73.91798569 -2.2071228 68.20297241 C-3.84510062 65.43660717 -5.48540054 62.67162173 -7.12559509 59.90657043 C-8.32608555 57.882571 -9.52609824 55.85828886 -10.72607422 53.83398438 C-12.81578936 50.30947194 -14.9095993 46.78741072 -17.00390625 43.265625 C-18.16937744 41.30214661 -19.33474969 39.33860948 -20.5 37.375 C-21.02134521 36.4998877 -21.54269043 35.62477539 -22.07983398 34.72314453 C-30.35016149 20.76444543 -30.35016149 20.76444543 -29 14 C-23.8866675 4.90963111 -10.47505873 -3.17964032 0 0 Z " fill="#FFFDFE" transform="translate(455,963)"/>
<path d="M0 0 C0.82886719 -0.01160156 1.65773438 -0.02320313 2.51171875 -0.03515625 C8.74885467 -0.00540838 13.06364702 0.95170089 17.64160156 5.50512695 C19.96596819 9.09458173 20.01314933 11.95125782 19.890625 16.08203125 C19.88496521 16.80742599 19.87930542 17.53282074 19.87347412 18.28019714 C19.85119099 20.58332008 19.80101487 22.88485224 19.75 25.1875 C19.72992434 26.75453472 19.71167543 28.32159399 19.6953125 29.88867188 C19.65135337 33.71805519 19.58238623 37.54625846 19.5 41.375 C20.63429443 41.3435791 20.63429443 41.3435791 21.79150391 41.31152344 C25.235866 41.22809415 28.68001507 41.17625376 32.125 41.125 C33.90970703 41.07472656 33.90970703 41.07472656 35.73046875 41.0234375 C46.84899917 40.89920811 46.84899917 40.89920811 51.5 45.375 C55.65204911 52.8486884 55.84360786 61.93984054 53.80859375 70.171875 C52.38723996 73.81149224 51.35360458 75.74617796 48.15625 78.1015625 C42.66680034 80.0134862 37.38931476 79.68936697 31.625 79.5625 C29.87703125 79.54219727 29.87703125 79.54219727 28.09375 79.52148438 C25.22868882 79.48625821 22.36458623 79.43699715 19.5 79.375 C19.59380557 84.12590911 19.69995867 88.87632484 19.81738281 93.62670898 C19.85558072 95.2415417 19.89044945 96.85645684 19.921875 98.47143555 C19.96772609 100.79766217 20.02568584 103.12332592 20.0859375 105.44921875 C20.09748871 106.16712082 20.10903992 106.88502289 20.12094116 107.62467957 C20.27171996 112.78726753 20.77620868 116.65120868 24.5 120.375 C26.7235231 120.57687629 28.95568316 120.6883345 31.1875 120.75 C37.19584048 121.11936519 40.87207909 121.4669779 45.5 125.375 C49.50028997 131.43995577 49.26823527 138.30723555 48.5 145.375 C47.24476523 150.09900184 45.79804205 153.38601558 41.875 156.375 C41.09125 156.705 40.3075 157.035 39.5 157.375 C38.84 157.705 38.18 158.035 37.5 158.375 C22.95412482 159.70720812 7.5806479 159.09205819 -4.5390625 150.05859375 C-12.53940904 143.18977032 -16.27876566 135.64713517 -18.5 125.375 C-18.58406811 123.81788926 -18.61780938 122.2576148 -18.61352539 120.69824219 C-18.61344986 119.77758972 -18.61337433 118.85693726 -18.61329651 117.90838623 C-18.60813522 116.92283752 -18.60297394 115.93728882 -18.59765625 114.921875 C-18.5962413 113.90651672 -18.59482635 112.89115845 -18.59336853 111.84503174 C-18.58777516 108.60499108 -18.57522385 105.36501975 -18.5625 102.125 C-18.55748414 99.92708433 -18.55292139 97.72916758 -18.54882812 95.53125 C-18.5378079 90.14580971 -18.52107633 84.76040981 -18.5 79.375 C-19.45261719 79.42140625 -20.40523437 79.4678125 -21.38671875 79.515625 C-22.64097656 79.55171875 -23.89523437 79.5878125 -25.1875 79.625 C-26.42886719 79.67140625 -27.67023438 79.7178125 -28.94921875 79.765625 C-33.07545283 79.31169386 -34.59770828 78.2686172 -37.5 75.375 C-40.27244606 70.81009636 -39.83136518 65.61787837 -39.8125 60.4375 C-39.82861328 59.55642578 -39.84472656 58.67535156 -39.86132812 57.76757812 C-39.86522286 52.56810621 -39.5025947 48.81450232 -36.5 44.375 C-33.95299327 41.83851343 -32.69331097 41.39140082 -29.046875 41.08203125 C-27.79390625 41.11683594 -26.5409375 41.15164063 -25.25 41.1875 C-23.98671875 41.21457031 -22.7234375 41.24164062 -21.421875 41.26953125 C-20.45765625 41.30433594 -19.4934375 41.33914063 -18.5 41.375 C-18.51571045 40.40151611 -18.5314209 39.42803223 -18.54760742 38.42504883 C-18.60206239 34.80029633 -18.63640626 31.17557974 -18.66479492 27.55053711 C-18.67984622 25.98406893 -18.70029207 24.41764264 -18.72631836 22.85131836 C-18.76286433 20.59478394 -18.77976261 18.33880847 -18.79296875 16.08203125 C-18.80845261 15.38600296 -18.82393646 14.68997467 -18.83988953 13.97285461 C-18.84139607 9.58268854 -18.1913783 6.86263934 -15.5 3.375 C-10.49279473 -0.07876508 -5.86131225 -0.08204014 0 0 Z " fill="#FFFEFE" transform="translate(1157.5,924.625)"/>
<path d="M0 0 C3.97257643 3.34969859 4.74495589 5.58072449 5.2734375 10.59375 C5.58067857 19.38557136 3.67238317 26.5086935 -1.24609375 33.86328125 C-3.49068641 36.22776313 -5.70863979 36.96397584 -8.875 37.35546875 C-14.20682488 37.49268483 -18.0702865 36.98904579 -23 35 C-28.11143369 34.36014076 -33.18621448 33.960314 -37.5625 37 C-38.366875 37.66 -39.17125 38.32 -40 39 C-40.66 39 -41.32 39 -42 39 C-43.76011668 42.80283903 -44.24662464 45.77114325 -44.23950195 49.94848633 C-44.24323318 51.12353226 -44.24696442 52.29857819 -44.25080872 53.50923157 C-44.24667465 54.77075546 -44.24254059 56.03227936 -44.23828125 57.33203125 C-44.24975411 59.32733089 -44.26125653 61.32263086 -44.27447033 63.31791973 C-44.30458604 68.22408508 -44.31536395 73.13013318 -44.30541992 78.03637695 C-44.30068213 80.79253126 -44.30921042 83.54805778 -44.33183289 86.30412292 C-44.35237217 88.89397679 -44.35340704 91.48407911 -44.33235168 94.07392883 C-44.41133615 101.16820591 -44.93597998 106.69001662 -50 112 C-55.20369871 115.14185582 -60.13123895 115.27670805 -66.125 115.375 C-66.80602783 115.38917969 -67.48705566 115.40335938 -68.1887207 115.41796875 C-72.85378396 115.37256115 -76.04124389 114.44288484 -80 112 C-84.88720053 106.58445347 -85.15575695 102.98103055 -85.17700195 95.87207031 C-85.18357315 94.9255661 -85.19014435 93.97906189 -85.19691467 93.00387573 C-85.21667456 89.86195807 -85.22831663 86.72008828 -85.23828125 83.578125 C-85.24235678 82.50625694 -85.2464323 81.43438889 -85.25063133 80.33003998 C-85.27150414 74.65622652 -85.28580029 68.98243732 -85.29516602 63.30859375 C-85.30622939 57.44622584 -85.34062527 51.58423763 -85.38033772 45.72200394 C-85.40647791 41.21640311 -85.41485559 36.71089307 -85.41844749 32.20522308 C-85.42332062 30.04427274 -85.43495517 27.88332664 -85.45348549 25.72245026 C-85.47781983 22.6964966 -85.47692204 19.67152926 -85.4699707 16.64550781 C-85.48278076 15.75384918 -85.49559082 14.86219055 -85.50878906 13.94351196 C-85.46294563 8.46417517 -84.64146804 5.35414723 -81 1 C-76.06919084 -3.33313532 -71.42806581 -3.2100923 -65.1875 -3.25 C-64.39279297 -3.270625 -63.59808594 -3.29125 -62.77929688 -3.3125 C-57.75647358 -3.34573622 -54.35238399 -2.77811744 -50 0 C-47.51477012 2.68673501 -46.1581762 4.52547139 -45 8 C-44.5153125 7.54109375 -44.030625 7.0821875 -43.53125 6.609375 C-31.32000704 -4.56860894 -15.30353082 -8.40397285 0 0 Z " fill="#FFFDFE" transform="translate(1106,968)"/>
<path d="M0 0 C3.68403865 2.60049787 4.8379642 3.96323923 6.1875 8.25 C7.62426852 17.14505008 4.78355397 26.08475885 -0.31640625 33.41015625 C-3.72363875 36.88307034 -6.61298341 37.61382413 -11.4375 37.75 C-14.39773113 37.64821555 -16.56130662 37.35071248 -19.31640625 36.24609375 C-24.35265608 34.23632269 -30.14833065 34.19479708 -35.19921875 36.1953125 C-39.35380949 38.63738248 -41.59268048 40.91229546 -43.8125 45.25 C-44.25271138 48.12356767 -44.25271138 48.12356767 -44.18139648 51.21435547 C-44.18827988 52.39262909 -44.19516327 53.57090271 -44.20225525 54.78488159 C-44.19609695 56.04954254 -44.18993866 57.31420349 -44.18359375 58.6171875 C-44.19652779 60.61598569 -44.20948451 62.61478404 -44.22376347 64.61357307 C-44.25371592 69.52959975 -44.25027743 74.44571814 -44.24829102 79.36181641 C-44.24824969 82.12386542 -44.25886653 84.88552464 -44.28004456 87.64749146 C-44.2987181 90.24400257 -44.30065203 92.84070178 -44.28379822 95.43722534 C-44.34123729 102.21722594 -44.56132949 106.82841835 -48.8125 112.25 C-53.90605168 115.26908699 -58.48276286 115.7688014 -64.25 115.6875 C-65.37269287 115.67614014 -65.37269287 115.67614014 -66.51806641 115.66455078 C-72.24348501 115.49325086 -76.14837383 114.79473589 -80.8125 111.25 C-84.21178347 106.07223368 -84.24663857 101.55588413 -84.21655273 95.57617188 C-84.22341599 94.61932999 -84.23027924 93.6624881 -84.23735046 92.676651 C-84.25560414 89.52386504 -84.25178332 86.3715773 -84.24609375 83.21875 C-84.25065583 81.02209308 -84.25596149 78.82543759 -84.26197815 76.62878418 C-84.27090616 72.02899368 -84.26848909 67.42937683 -84.25854492 62.82958984 C-84.24704871 56.93813631 -84.26727875 51.04728156 -84.29646206 45.15590668 C-84.31481533 40.62111613 -84.31453342 36.08646936 -84.30882454 31.551651 C-84.30867126 29.37955383 -84.31472132 27.20744695 -84.32711601 25.03538513 C-84.34200939 21.99781794 -84.33136097 18.9613608 -84.31420898 15.92382812 C-84.32387695 15.02910294 -84.33354492 14.13437775 -84.34350586 13.21253967 C-84.27895046 7.7471464 -83.4982125 4.55834894 -79.8125 0.25 C-73.01420575 -4.28219617 -63.70642795 -3.3335671 -55.8125 -2.75 C-51.27528349 -1.44997484 -48.4814434 0.24658491 -45.8125 4.25 C-45.6875 6.9375 -45.6875 6.9375 -45.8125 9.25 C-45.1525 9.25 -44.4925 9.25 -43.8125 9.25 C-43.48185547 8.37214844 -43.48185547 8.37214844 -43.14453125 7.4765625 C-41.39518368 4.55243313 -39.39230064 3.4018667 -36.5 1.625 C-35.55511719 1.03460937 -34.61023438 0.44421875 -33.63671875 -0.1640625 C-23.30833647 -5.96395628 -10.52608417 -5.24120374 0 0 Z " fill="#FFFEFE" transform="translate(412.8125,967.75)"/>
<path d="M0 0 C0.7115625 -0.01289062 1.423125 -0.02578125 2.15625 -0.0390625 C8.4912266 1.75584754 12.30997803 7.65883531 15.875 12.8125 C16.32488281 13.44091797 16.77476563 14.06933594 17.23828125 14.71679688 C20.5 19.35160999 20.5 19.35160999 20.5 21.625 C21.16 21.625 21.82 21.625 22.5 21.625 C22.72945312 20.94824219 22.95890625 20.27148438 23.1953125 19.57421875 C24.84266044 15.85042325 27.00968676 12.7372154 29.375 9.4375 C29.80941406 8.80908203 30.24382812 8.18066406 30.69140625 7.53320312 C34.79941723 1.76595047 34.79941723 1.76595047 38.5 0.625 C42.77811129 0.28546736 45.4224313 0.17991728 49.375 1.8125 C52.45179254 4.43682305 53.34875913 7.18372438 53.76742554 11.17347717 C53.77504913 12.07408371 53.78267273 12.97469025 53.79052734 13.90258789 C53.80328705 14.93037857 53.81604675 15.95816925 53.82919312 17.0171051 C53.83141876 18.11618698 53.83364441 19.21526886 53.8359375 20.34765625 C53.8459227 22.05410561 53.8459227 22.05410561 53.85610962 23.79502869 C53.86622146 26.19642522 53.87092709 28.59784977 53.87060547 30.99926758 C53.87498834 34.67771343 53.91135204 38.35496868 53.94921875 42.03320312 C53.95508516 44.3671834 53.95905573 46.70116936 53.9609375 49.03515625 C53.97530853 50.13626236 53.98967957 51.23736847 54.00448608 52.37184143 C53.99833282 53.39647995 53.99217957 54.42111847 53.98583984 55.47680664 C53.98868988 56.37661758 53.99153992 57.27642853 53.99447632 58.20350647 C53.33797764 61.41843761 52.0420589 62.61362912 49.5 64.625 C46.40625 65.15625 46.40625 65.15625 43 65.125 C41.8759375 65.1353125 40.751875 65.145625 39.59375 65.15625 C36.5 64.625 36.5 64.625 34.140625 63.109375 C31.86234383 59.65940637 31.82792768 56.38473314 31.75 52.375 C31.72035156 51.62992188 31.69070313 50.88484375 31.66015625 50.1171875 C31.5897657 48.28703328 31.54258168 46.45601231 31.5 44.625 C31.06429688 45.058125 30.62859375 45.49125 30.1796875 45.9375 C27.3443141 48.58875824 25.31450384 50.42137404 21.5 51.375 C17.17710929 50.29427732 14.6104651 47.71705998 11.5 44.625 C11.45101563 45.57761719 11.40203125 46.53023437 11.3515625 47.51171875 C11.27679687 48.76597656 11.20203125 50.02023437 11.125 51.3125 C11.05539062 52.55386719 10.98578125 53.79523437 10.9140625 55.07421875 C10.53297738 58.34220341 10.00095277 60.71487934 8.5 63.625 C5.54611864 65.10194068 2.84838118 64.83430797 -0.4375 64.875 C-1.68402344 64.90078125 -2.93054687 64.9265625 -4.21484375 64.953125 C-7.5 64.625 -7.5 64.625 -9.17808533 63.44210815 C-10.98191658 60.96255592 -10.89991321 59.27615488 -10.93579102 56.22314453 C-10.95493057 55.11834747 -10.97407013 54.01355042 -10.99378967 52.87527466 C-10.99712814 51.68151215 -11.00046661 50.48774963 -11.00390625 49.2578125 C-11.01389145 48.03093719 -11.02387665 46.80406189 -11.03416443 45.54000854 C-11.04936463 42.94255959 -11.05638964 40.34505198 -11.0559082 37.74755859 C-11.06246351 33.77212978 -11.1169159 29.79920474 -11.17382812 25.82421875 C-11.18263106 23.30209189 -11.18858469 20.77995314 -11.19140625 18.2578125 C-11.2129628 17.06809845 -11.23451935 15.8783844 -11.25672913 14.65261841 C-11.18997448 6.6166409 -11.18997448 6.6166409 -9.20004272 3.75668335 C-6.36968929 1.3110455 -3.7466347 -0.06787382 0 0 Z " fill="#FF65C4" transform="translate(1303.5,889.375)"/>
<path d="M0 0 C0.98797577 -0.00960754 1.97595154 -0.01921509 2.99386597 -0.02911377 C4.60009323 -0.03548859 4.60009323 -0.03548859 6.23876953 -0.04199219 C7.33625519 -0.04769226 8.43374084 -0.05339233 9.56448364 -0.05926514 C11.88965895 -0.06872353 14.21484771 -0.07525244 16.54003906 -0.07910156 C20.10000962 -0.08880837 23.6594033 -0.11982497 27.21923828 -0.15136719 C29.47574526 -0.15789693 31.73225638 -0.16314751 33.98876953 -0.16699219 C35.05553925 -0.17933899 36.12230896 -0.19168579 37.22140503 -0.20440674 C38.21568512 -0.20140564 39.20996521 -0.19840454 40.234375 -0.1953125 C41.10770477 -0.19895813 41.98103455 -0.20260376 42.88082886 -0.20635986 C45.78207186 0.24431503 47.13264711 1.14872902 49.24658203 3.16113281 C50.89683546 8.11189311 51.08791513 12.44188691 48.80908203 17.09863281 C47.24658203 19.16113281 47.24658203 19.16113281 46.24658203 20.16113281 C43.71608801 20.23426848 41.21353366 20.25360808 38.68408203 20.22363281 C37.61770508 20.21686523 37.61770508 20.21686523 36.52978516 20.20996094 C34.7686819 20.19814145 33.00762167 20.18020544 31.24658203 20.16113281 C31.2675293 21.3519043 31.28847656 22.54267578 31.31005859 23.76953125 C31.38249165 28.18998171 31.42839375 32.61037977 31.46630859 37.03125 C31.48641655 38.94410017 31.5137071 40.85688892 31.54833984 42.76953125 C31.59689452 45.52001093 31.61955861 48.26967758 31.63720703 51.02050781 C31.65785217 51.87481384 31.67849731 52.72911987 31.69976807 53.60931396 C31.70200202 59.52855438 31.70200202 59.52855438 29.41772461 62.70141602 C26.42189465 64.71559203 24.26579058 64.65975412 20.68408203 64.59863281 C19.54841797 64.59734375 18.41275391 64.59605469 17.24267578 64.59472656 C14.24658203 64.16113281 14.24658203 64.16113281 12.40673828 62.75878906 C9.59573893 58.88774956 10.12074925 55.03534444 10.14892578 50.43457031 C10.15034073 49.57175446 10.15175568 48.7089386 10.1532135 47.81997681 C10.15882016 45.05866051 10.17137376 42.29742469 10.18408203 39.53613281 C10.18909618 37.66634232 10.19365923 35.79655055 10.19775391 33.92675781 C10.20879175 29.33818504 10.22606083 24.74967258 10.24658203 20.16113281 C9.19857422 20.1959375 8.15056641 20.23074219 7.07080078 20.26660156 C5.69191056 20.29474218 4.31300301 20.32204205 2.93408203 20.34863281 C1.89864258 20.38633789 1.89864258 20.38633789 0.84228516 20.42480469 C-4.28593899 20.49912678 -4.28593899 20.49912678 -6.67138672 18.77441406 C-9.38844032 14.72335581 -9.0899171 10.91315713 -8.75341797 6.16113281 C-7.87841797 3.16113281 -7.87841797 3.16113281 -6.75341797 1.16113281 C-4.31727037 -0.05694099 -2.72299643 0.02132821 0 0 Z " fill="#FF65C4" transform="translate(1238.75341796875,889.8388671875)"/>
<path d="M0 0 C5.88076711 2.47670769 8.84688412 6.90461002 11.78125 12.41796875 C13.84129535 18.59810479 12.86590926 23.53908244 10.125 29.265625 C7.36818261 33.68134122 3.70627241 36.77629461 -1.21875 38.41796875 C-8.15885936 39.13768379 -13.83573875 39.13459029 -19.59765625 34.91796875 C-23.48353109 31.32236408 -25.89553661 27.2760986 -26.4921875 22 C-26.74590962 15.08119304 -25.79111985 10.70242898 -21.21875 5.41796875 C-14.83137199 -0.50204014 -8.52166594 -2.23543702 0 0 Z M-16.21875 15.41796875 C-16.91026325 19.72071784 -16.73432405 21.62742187 -14.34375 25.29296875 C-11.82010348 27.81661527 -10.95138343 28.35284578 -7.40625 28.66796875 C-3.82720281 28.38725917 -2.07624983 27.54068291 0.78125 25.41796875 C2.39713379 22.18620118 2.35576407 18.91181592 1.78125 15.41796875 C-0.20796886 12.43414045 -1.60377568 10.81520034 -5.15625 9.94140625 C-10.42004448 9.56257256 -13.16933391 10.93913887 -16.21875 15.41796875 Z " fill="#FF68C5" transform="translate(950.21875,1004.58203125)"/>
<path d="M0 0 C2.71442826 1.71227993 4.19098351 3.52280339 5.97265625 6.1953125 C6.2734375 8.1328125 6.2734375 8.1328125 6.28515625 10.1953125 C6.30191406 10.8759375 6.31867188 11.5565625 6.3359375 12.2578125 C5.83628149 14.92264457 5.1866158 15.60633702 2.97265625 17.1953125 C0.38490854 17.45684319 -1.95634028 17.54489688 -4.5390625 17.48828125 C-5.26728714 17.48403641 -5.99551178 17.47979156 -6.74580383 17.47541809 C-9.06919502 17.45863983 -11.39171525 17.42099105 -13.71484375 17.3828125 C-15.29100309 17.36776447 -16.86717604 17.35407627 -18.44335938 17.34179688 C-22.30502252 17.30873935 -26.16603553 17.25696444 -30.02734375 17.1953125 C-28.97959484 10.20775174 -26.56997413 6.98180833 -21.05078125 2.640625 C-14.77913165 -1.39603674 -7.11685063 -2.82480006 0 0 Z " fill="#FF68C4" transform="translate(269.02734375,998.8046875)"/>
</svg>
