<?xml version="1.0" encoding="UTF-8"?>
<svg version="1.1" xmlns="http://www.w3.org/2000/svg" width="2000" height="700">
<path d="M0 0 C7.39055223 6.48336497 14.79776739 15.23691703 16.26171875 25.28125 C16.32359375 26.6734375 16.32359375 26.6734375 16.38671875 28.09375 C16.96905273 27.93293945 17.55138672 27.77212891 18.15136719 27.60644531 C21.6180094 26.81134389 25.09755606 26.85982691 28.63671875 26.84375 C29.829021 26.83565308 29.829021 26.83565308 31.04541016 26.82739258 C36.48811317 26.87225299 41.46766218 27.56906249 46.76171875 28.78125 C52.8845242 30.1493875 57.11121747 29.74494104 63.078125 27.8828125 C76.94529251 24.57564858 93.7581294 26.72006744 106.19921875 33.65625 C108.99618756 35.02554403 109.94823681 35.22166804 112.984375 34.3359375 C114.87650004 33.44709114 116.74888554 32.51526185 118.6015625 31.546875 C132.18133397 24.46177684 149.69108616 25.40461032 163.9921875 29.8359375 C173.75822462 33.45465321 181.53761829 38.28489177 189.38671875 45.09375 C190.46373047 46.00640625 190.46373047 46.00640625 191.5625 46.9375 C193.18000486 48.31189291 194.78502025 49.7009687 196.38671875 51.09375 C197.25296875 50.124375 198.11921875 49.155 199.01171875 48.15625 C212.19231275 35.05537733 230.09514533 28.44155015 248.38671875 27.09375 C249.05960938 27.03960937 249.7325 26.98546875 250.42578125 26.9296875 C256.73898975 26.66959277 262.63318614 28.09527533 268.73828125 29.53515625 C273.90378255 30.32601994 278.35983954 29.4481447 283.32421875 28.03125 C294.50292832 25.49842483 310.86964234 25.55749784 321.13671875 30.84375 C325.76222458 32.6227907 328.75042481 31.45486382 333.38671875 30.09375 C347.98775801 25.9561258 363.79965887 25.23139671 378.38671875 30.09375 C380.49764438 29.59499728 380.49764438 29.59499728 382.69921875 28.71875 C395.99439713 23.75336052 409.9740594 25.89754181 423.38671875 29.09375 C423.26296875 27.485 423.26296875 27.485 423.13671875 25.84375 C423.17023392 16.39247293 427.18695504 8.02194547 433.38671875 1.09375 C434.56234375 -0.2365625 434.56234375 -0.2365625 435.76171875 -1.59375 C448.47582706 -12.79427399 463.50175056 -13.65696148 479.75146484 -13.08544922 C491.32579748 -12.29838602 500.39542494 -8.06154932 509.07421875 -0.59375 C516.98923773 8.60478557 520.66951672 17.0249711 521.38671875 29.09375 C522.25554687 29.20589844 523.124375 29.31804687 524.01953125 29.43359375 C533.31708896 31.25643279 541.70915401 36.54056119 547.38671875 44.09375 C553.89759785 54.61579569 555.77320794 64.74873809 555.69921875 76.96875 C555.6943042 77.93329102 555.68938965 78.89783203 555.68432617 79.89160156 C555.47058867 92.8999946 552.60372245 105.12109772 543.19921875 114.59375 C541.93788134 115.77067668 540.66858742 116.93921928 539.38671875 118.09375 C538.72671875 118.75375 538.06671875 119.41375 537.38671875 120.09375 C537.845625 120.61582031 538.30453125 121.13789063 538.77734375 121.67578125 C549.78757438 134.88343186 550.23747779 149.62368514 549.38671875 166.09375 C548.08349157 177.17118101 543.89767256 186.67394412 535.38671875 194.09375 C534.24203125 195.1146875 534.24203125 195.1146875 533.07421875 196.15625 C518.66061477 206.54745287 499.81948106 206.73660489 482.8125 204.3203125 C468.0675523 201.86736372 455.73280704 196.96067034 444.38671875 187.09375 C443.71125 186.51753906 443.03578125 185.94132813 442.33984375 185.34765625 C425.62548236 169.92754851 423.43921503 147.36110504 421.38671875 126.09375 C420.8659375 126.25746094 420.34515625 126.42117188 419.80859375 126.58984375 C416.71103125 127.23433659 413.79830781 127.18786589 410.63671875 127.15625 C409.46625 127.14722656 408.29578125 127.13820313 407.08984375 127.12890625 C405.75179688 127.11150391 405.75179688 127.11150391 404.38671875 127.09375 C404.41813965 128.85464966 404.41813965 128.85464966 404.45019531 130.65112305 C404.52337886 135.06619751 404.56879923 139.48122003 404.60644531 143.89672852 C404.6263843 145.79656025 404.65354566 147.69633204 404.68847656 149.59594727 C404.95937027 164.72217361 404.34999248 177.82015193 394.38671875 190.09375 C393.87367187 190.73054687 393.360625 191.36734375 392.83203125 192.0234375 C384.25846604 201.58152695 370.86490519 204.55213935 358.515625 205.2578125 C349.14046284 205.51026485 339.38565746 204.50177469 330.61328125 200.98046875 C326.88842019 199.49705917 323.78607902 200.6584391 320.05737305 201.81835938 C313.18218213 203.90408436 306.9848783 204.52647598 299.82421875 204.40625 C298.86064453 204.40947266 297.89707031 204.41269531 296.90429688 204.41601562 C291.28028931 204.37430013 286.10519213 203.81426124 280.63598633 202.48974609 C275.97449702 201.66906492 271.38511543 202.6892407 266.80078125 203.6171875 C243.51888879 206.86706265 223.93776337 201.87712533 204.38671875 189.09375 C203.72671875 189.795 203.06671875 190.49625 202.38671875 191.21875 C193.71799882 199.74258881 183.72756136 204.58295353 171.38671875 205.09375 C169.66195313 205.18849609 169.66195313 205.18849609 167.90234375 205.28515625 C154.6242248 205.78867811 141.59633178 203.69137661 130.38671875 196.09375 C129.92523437 196.41988281 129.46375 196.74601563 128.98828125 197.08203125 C121.48892308 202.10630481 113.412713 204.60036768 104.38671875 205.09375 C103.23429688 205.15820312 102.081875 205.22265625 100.89453125 205.2890625 C87.6171006 205.7818604 74.59666966 203.69160562 63.38671875 196.09375 C62.92523437 196.41988281 62.46375 196.74601563 61.98828125 197.08203125 C49.09962998 205.71691817 32.74095102 206.77887285 17.69921875 204.34375 C7.06039381 202.06623029 -0.46406103 198.37678412 -8.61328125 191.09375 C-9.41507813 191.60164062 -10.216875 192.10953125 -11.04296875 192.6328125 C-34.68126896 207.12889674 -62.48731104 210.74560864 -89.46386719 204.64160156 C-110.05472127 199.39331935 -130.00221289 187.15541189 -141.61328125 169.09375 C-142.27328125 168.76375 -142.93328125 168.43375 -143.61328125 168.09375 C-143.89002686 168.96257812 -144.16677246 169.83140625 -144.4519043 170.7265625 C-145.54884022 173.90691572 -146.80321941 176.90778501 -148.1953125 179.96875 C-148.70884277 181.10465576 -149.22237305 182.24056152 -149.75146484 183.41088867 C-150.30947041 184.63855453 -150.86757851 185.86617379 -151.42578125 187.09375 C-155.07313015 195.1361944 -158.68106495 203.18889422 -162.1171875 211.32421875 C-162.68839298 212.66992281 -163.25960063 214.01562595 -163.83081055 215.36132812 C-164.65109896 217.2954894 -165.46741289 219.23081495 -166.2706604 221.17211914 C-172.3829801 235.94113648 -179.75983868 247.9446664 -194.5546875 254.87109375 C-207.56484517 260.07183366 -219.94148844 258.34096855 -232.69775391 253.26416016 C-247.49488189 246.88995957 -258.34629249 238.12796166 -264.48828125 222.84375 C-269.72905444 204.43713196 -260.38012878 185.80303458 -252.37133789 169.57763672 C-251.9974292 168.7992041 -251.62352051 168.02077148 -251.23828125 167.21875 C-250.90054687 166.54070312 -250.5628125 165.86265625 -250.21484375 165.1640625 C-249.0574593 161.18085627 -250.38920903 158.52357428 -252.25561523 154.94335938 C-252.94971783 153.77047833 -253.65139033 152.60205402 -254.359375 151.4375 C-254.9161367 150.5003717 -254.9161367 150.5003717 -255.48414612 149.54431152 C-256.66622991 147.55664169 -257.85780375 145.57489744 -259.05078125 143.59375 C-260.23889155 141.61187885 -261.42483067 139.62878524 -262.60670471 137.64318848 C-263.34068629 136.41094402 -264.07840426 135.18091494 -264.82041931 133.95349121 C-266.73342207 130.75117473 -268.33835951 127.60091466 -269.61328125 124.09375 C-270.12375 124.3103125 -270.63421875 124.526875 -271.16015625 124.75 C-275.87917256 126.55728284 -279.87015479 127.27132234 -284.94140625 127.1875 C-286.0077832 127.17396484 -287.07416016 127.16042969 -288.17285156 127.14648438 C-289.38086426 127.12038086 -289.38086426 127.12038086 -290.61328125 127.09375 C-290.60542603 128.25608154 -290.60542603 128.25608154 -290.59741211 129.44189453 C-290.30392023 179.42467652 -290.30392023 179.42467652 -303.61328125 193.09375 C-316.17214461 203.77851941 -331.5756559 206.00831927 -347.61328125 205.09375 C-354.42205527 204.18054165 -361.09736694 203.17819442 -367.17578125 199.84375 C-371.21204111 197.7889268 -372.32192003 198.06084172 -376.61328125 199.09375 C-378.56753531 199.84310535 -380.50475751 200.63790094 -382.42578125 201.46875 C-410.58316073 212.59027203 -445.4088525 210.42327384 -472.92578125 198.78125 C-479.23799236 195.99341901 -484.4510617 192.71151671 -489.61328125 188.09375 C-490.33515625 187.52398437 -491.05703125 186.95421875 -491.80078125 186.3671875 C-499.01832167 180.47787501 -505.42880665 172.4626992 -509.61328125 164.09375 C-509.86384277 164.61171143 -510.1144043 165.12967285 -510.37255859 165.66333008 C-518.40874658 182.08375864 -526.43841011 195.24893515 -544.3515625 202.1484375 C-558.3473031 206.60838519 -573.58332925 206.19015696 -586.98828125 199.84375 C-599.10712799 193.09987349 -605.77985669 184.33097274 -611.98828125 172.15625 C-612.49665527 171.17100342 -613.0050293 170.18575684 -613.52880859 169.1706543 C-618.60037251 159.26509 -623.42928506 149.24187026 -628.25610352 139.21557617 C-633.37938074 128.58227162 -638.62729761 118.01571323 -643.92578125 107.46875 C-650.21077735 94.9503365 -656.38569086 82.39053112 -662.36328125 69.72167969 C-663.68958831 66.93332632 -665.03969355 64.15740722 -666.39453125 61.3828125 C-666.85085938 60.44236084 -667.3071875 59.50190918 -667.77734375 58.53295898 C-668.63106221 56.7745049 -669.48993627 55.01853839 -670.35546875 53.26586914 C-674.36343842 44.96664838 -677.18875029 36.9494501 -677.05078125 27.65625 C-677.04320801 26.92543213 -677.03563477 26.19461426 -677.02783203 25.44165039 C-676.65748367 13.17825364 -671.31109652 4.4042785 -662.61328125 -3.90625 C-648.86439161 -15.62510225 -632.81907877 -21.58225367 -614.73779297 -20.16357422 C-603.84234811 -18.84390071 -595.64408886 -13.06998395 -588.61328125 -4.90625 C-580.925268 5.74906661 -576.09561134 18.57795698 -570.6640625 30.484375 C-568.1020396 36.0851138 -565.41830049 41.61096246 -562.61328125 47.09375 C-562.20078125 46.17787109 -561.78828125 45.26199219 -561.36328125 44.31835938 C-559.7934814 40.83526517 -558.21933637 37.35414781 -556.64404297 33.87353516 C-555.9700527 32.38283854 -555.29715528 30.8916472 -554.62548828 29.39990234 C-550.97988262 21.30523669 -547.26756751 13.2494282 -543.3359375 5.2890625 C-543.01524292 4.63240601 -542.69454834 3.97574951 -542.36413574 3.29919434 C-539.78289003 -1.86498352 -536.79349839 -5.95719694 -532.61328125 -9.90625 C-532.09507812 -10.45539063 -531.576875 -11.00453125 -531.04296875 -11.5703125 C-523.81322071 -18.66035527 -514.45707272 -20.29040408 -504.67578125 -20.40625 C-487.53540097 -20.22198331 -473.39973593 -12.7823368 -460.92578125 -1.46875 C-453.16439795 7.13170177 -449.39319445 14.47573265 -448.61328125 26.09375 C-447.73285156 25.93519531 -446.85242188 25.77664063 -445.9453125 25.61328125 C-423.82600024 22.48983686 -402.3612904 24.68944421 -382.7734375 35.38671875 C-379.71746673 37.15493666 -379.71746673 37.15493666 -376.61328125 38.09375 C-374.67402283 37.01362054 -374.67402283 37.01362054 -372.67578125 35.40625 C-363.40563996 28.89291544 -352.64124605 26.894908 -341.48828125 26.90625 C-340.74562012 26.90633057 -340.00295898 26.90641113 -339.23779297 26.90649414 C-331.86609224 26.98197502 -324.63389291 27.75354611 -317.61328125 30.09375 C-315.50235562 29.59499728 -315.50235562 29.59499728 -313.30078125 28.71875 C-300.24974782 23.84454205 -281.8191856 24.60796903 -268.96484375 30.2578125 C-264.51134078 31.84095143 -260.71829449 29.8457803 -256.55078125 28.09375 C-245.52385428 23.47229524 -232.43362268 23.41234123 -221.2578125 27.76953125 C-211.47089014 32.67022059 -204.33824283 40.93381148 -198.61328125 50.09375 C-198.27296875 49.4646875 -197.93265625 48.835625 -197.58203125 48.1875 C-191.46692349 37.38847991 -184.21006787 29.90939707 -172.0703125 26.34765625 C-161.89196097 24.0594997 -153.58734565 25.25848296 -143.61328125 28.09375 C-143.53335938 27.40925781 -143.4534375 26.72476563 -143.37109375 26.01953125 C-142.41065129 22.31143124 -140.57857035 19.43745379 -138.48828125 16.28125 C-138.08665771 15.66685059 -137.68503418 15.05245117 -137.27124023 14.41943359 C-134.1306265 9.69637866 -130.86822154 4.8890153 -126.61328125 1.09375 C-125.95328125 1.09375 -125.29328125 1.09375 -124.61328125 1.09375 C-124.61328125 0.43375 -124.61328125 -0.22625 -124.61328125 -0.90625 C-90.53373863 -31.11861048 -34.28324894 -28.14061475 0 0 Z M248.38671875 112.09375 C247.63063542 114.95647774 247.575273 117.23930252 248.38671875 120.09375 C251.26915064 123.38795787 253.12820319 124.86259408 257.44921875 125.65625 C261.06452983 124.96395639 262.76780291 123.63783967 265.38671875 121.09375 C266.95607469 117.95503812 266.73872978 115.55519178 266.38671875 112.09375 C264.39888438 109.17411827 262.95524905 107.48272022 259.44921875 106.61328125 C254.18811853 106.24460567 251.39560902 107.5804146 248.38671875 112.09375 Z " fill="#FF66C4" transform="translate(700.61328125,256.90625)"/>
<path d="M0 0 C37.62 0 75.24 0 114 0 C114 62.7 114 125.4 114 190 C101.13 190 88.26 190 75 190 C75 164.92 75 139.84 75 114 C63.12 114 51.24 114 39 114 C39.01160156 119.40246094 39.02320313 124.80492187 39.03515625 130.37109375 C39.04026307 133.7845064 39.04507684 137.19791437 39.04882812 140.61132812 C39.05481633 146.03459648 39.06191604 151.45784803 39.07543945 156.88110352 C39.08626914 161.2512283 39.09227701 165.62133508 39.09487724 169.99147224 C39.09673135 171.66250963 39.10035168 173.33354597 39.10573006 175.00457573 C39.11294159 177.33697551 39.1139909 179.66929993 39.11352539 182.00170898 C39.11712067 182.6994191 39.12071594 183.39712921 39.12442017 184.11598206 C39.11405216 188.88594784 39.11405216 188.88594784 38 190 C25.46 190 12.92 190 0 190 C0 127.3 0 64.6 0 0 Z M39 38 C39 50.21 39 62.42 39 75 C50.88 75 62.76 75 75 75 C75 62.79 75 50.58 75 38 C63.12 38 51.24 38 39 38 Z " fill="#FFFFFF" transform="translate(1534,273)"/>
<path d="M0 0 C4.59899313 3.4992339 5.8267465 6.56037014 7 12 C7.4125 11.48050781 7.825 10.96101563 8.25 10.42578125 C13.048236 4.63148287 18.32387917 -0.63810759 26 -2 C38.63915163 -2.81847557 48.11090811 -1.14805459 58 7 C60.8227533 9.87920837 63.45222664 12.87602721 66 16 C66.41507813 15.443125 66.83015625 14.88625 67.2578125 14.3125 C73.45812343 6.63345383 81.60148064 1.13283979 91 -2 C105.33376084 -2.89371171 114.65121173 -0.4560888 125.91015625 8.5234375 C135.81605512 17.44963209 138.83037306 30.19502177 140 43 C140.4666355 52.2829487 140.43583512 61.57738177 140.39111328 70.86938477 C140.37384269 74.49497627 140.38401291 78.11990992 140.40183067 81.74547863 C140.41268635 84.56544439 140.40921717 87.38525448 140.4014473 90.20522499 C140.39850191 92.18712934 140.4075369 94.16903998 140.4168396 96.15092468 C140.40265488 97.95989983 140.40265488 97.95989983 140.38818359 99.80541992 C140.38579681 100.860009 140.38341003 101.91459808 140.38095093 103.00114441 C139.93076095 106.54505161 138.82522082 108.94378408 137 112 C131.6596857 115.97100294 126.61428547 116.20237222 120.125 116.25 C119.43019531 116.270625 118.73539063 116.29125 118.01953125 116.3125 C112.46871437 116.35431406 108.60146177 115.04400568 104.25 111.625 C101.31932805 107.81512647 100.74920481 103.99817661 100.72875977 99.29516602 C100.71347984 97.61300743 100.71347984 97.61300743 100.69789124 95.89686584 C100.69575119 94.69468918 100.69361115 93.49251251 100.69140625 92.25390625 C100.666251 89.69986746 100.6408529 87.14583106 100.61523438 84.59179688 C100.58647082 80.57153666 100.5622336 76.55132326 100.54370117 72.53100586 C100.52205197 68.64675791 100.48261713 64.76298868 100.44140625 60.87890625 C100.44123253 59.0786776 100.44123253 59.0786776 100.4410553 57.24208069 C100.36057836 50.45707563 100.17807443 45.23971811 95.1875 40.15234375 C92.34162526 38.65317759 90.20694485 38.56650868 87 38.5625 C85.96875 38.54316406 84.9375 38.52382813 83.875 38.50390625 C80.27361405 39.12534105 79.2019418 40.12469653 77 43 C75.23606716 46.69163674 74.74647667 49.62938143 74.72875977 53.70483398 C74.71857315 54.82627304 74.70838654 55.9477121 74.69789124 57.10313416 C74.69575119 58.30531082 74.69361115 59.50748749 74.69140625 60.74609375 C74.666251 63.30013254 74.6408529 65.85416894 74.61523438 68.40820312 C74.58647082 72.42846334 74.5622336 76.44867674 74.54370117 80.46899414 C74.52205197 84.35324209 74.48261713 88.23701132 74.44140625 92.12109375 C74.44129044 93.32124619 74.44117462 94.52139862 74.4410553 95.75791931 C74.36025209 102.57043202 73.78917014 107.09516181 69.75 112.75 C62.83385546 117.69010324 52.6870685 116.67976745 44.6796875 115.72265625 C41.5948889 115.02156566 39.95428956 113.95552498 37.6875 111.75 C33.53618193 104.98488908 33.70604226 98.56393316 33.69140625 90.84765625 C33.66625132 88.43814857 33.64085322 86.02864342 33.61523438 83.61914062 C33.58648319 79.83602526 33.56245268 76.05295368 33.54370117 72.26977539 C33.52201982 68.60800945 33.48258441 64.9467473 33.44140625 61.28515625 C33.44123253 59.59580711 33.44123253 59.59580711 33.4410553 57.87232971 C33.35537372 51.05554966 33.13534466 45.2347742 28.15234375 40.09375 C23.97556915 37.97125111 19.54066004 38.27915338 15 39 C11.07882165 41.80084168 9.50016274 44.50759505 8 49 C7.70339813 51.75619142 7.70339813 51.75619142 7.74462891 54.68896484 C7.73419052 56.36628189 7.73419052 56.36628189 7.72354126 58.07748413 C7.72453827 59.27652374 7.72553528 60.47556335 7.7265625 61.7109375 C7.7062745 64.26042106 7.68542374 66.8099002 7.6640625 69.359375 C7.64146009 73.37081074 7.62414538 77.3820643 7.61914062 81.39355469 C7.60961261 85.2705024 7.57583103 89.14666574 7.5390625 93.0234375 C7.54410797 94.21842865 7.54915344 95.4134198 7.55435181 96.6446228 C7.47606895 103.28178416 7.11416921 107.67431049 3 113 C-1.8799465 115.87055677 -6.36818778 116.49108293 -11.9375 116.375 C-12.6397168 116.36484863 -13.34193359 116.35469727 -14.06542969 116.34423828 C-19.4402569 116.18321814 -23.34329373 115.68656131 -28 113 C-32.44317596 107.86897253 -32.57547593 103.69905378 -32.51757812 97.234375 C-32.5245874 96.26777954 -32.53159668 95.30118408 -32.53881836 94.30529785 C-32.55637953 91.1199037 -32.54478188 87.93540271 -32.53125 84.75 C-32.53394544 82.53092275 -32.5378283 80.31184665 -32.54284668 78.09277344 C-32.5487392 73.44584896 -32.5401864 68.79923239 -32.52148438 64.15234375 C-32.49869533 58.20033255 -32.51181967 52.24904285 -32.53577423 46.29705811 C-32.55023863 41.71592792 -32.54562319 37.13496837 -32.53526306 32.55383301 C-32.53259757 30.35941482 -32.53585926 28.16498106 -32.54518127 25.97058105 C-32.5553571 22.90184582 -32.53983046 19.83427376 -32.51757812 16.765625 C-32.52567505 15.86154907 -32.53377197 14.95747314 -32.54211426 14.02600098 C-32.46853121 8.53959612 -31.70136813 5.32581463 -28 1 C-20.1516823 -4.16336691 -8.56067953 -3.26862309 0 0 Z " fill="#FFFDFE" transform="translate(744,316)"/>
<path d="M0 0 C37.95 0 75.9 0 115 0 C115 12.54 115 25.08 115 38 C89.92 38 64.84 38 39 38 C39 75.29 39 112.58 39 151 C64.08 151 89.16 151 115 151 C115 163.54 115 176.08 115 189 C114 190 114 190 112.09657192 190.12304783 C111.25681851 190.12212604 110.41706511 190.12120424 109.55186462 190.12025452 C108.59328269 190.12163201 107.63470076 190.12300951 106.64707088 190.12442875 C105.58267568 190.12083064 104.51828047 190.11723253 103.42163086 190.11352539 C102.29152116 190.11364593 101.16141146 190.11376646 99.99705601 190.11389065 C96.31963226 190.1131411 92.64225849 190.10551097 88.96484375 190.09765625 C86.70218938 190.09618696 84.43953466 190.09516617 82.17687988 190.09460449 C73.76374809 190.0893501 65.35062356 190.07538904 56.9375 190.0625 C38.148125 190.041875 19.35875 190.02125 0 190 C0 127.3 0 64.6 0 0 Z " fill="#FFFFFF" transform="translate(1817,273)"/>
<path d="M0 0 C37.62 0 75.24 0 114 0 C114 12.54 114 25.08 114 38 C88.92 38 63.84 38 38 38 C38 75.29 38 112.58 38 151 C63.08 151 88.16 151 114 151 C114 163.87 114 176.74 114 190 C76.38 190 38.76 190 0 190 C0 127.3 0 64.6 0 0 Z " fill="#FFFFFF" transform="translate(1383,273)"/>
<path d="M0 0 C3.88631096 3.42256629 7.08406467 6.52525719 7.59765625 11.91796875 C6.91593393 19.71881992 1.52710033 26.43424926 -3.96484375 31.70703125 C-7.8958394 34.78541369 -11.23593678 35.59358574 -16.16015625 35.50390625 C-21.38953585 34.55384816 -26.52476063 31.34015889 -30.15234375 27.47265625 C-34.56079254 23.34680033 -40.05368979 23.68529212 -45.73046875 23.796875 C-50.96788133 24.24142991 -54.19081136 25.67613356 -58.11328125 29.296875 C-60.15624353 32.89248862 -60.24903856 34.96241666 -59.67578125 39.046875 C-57.2747278 44.76366893 -53.38156749 46.68508907 -47.91015625 48.96484375 C-43.26869785 50.51760218 -38.57753593 51.37048695 -33.76953125 52.25 C-17.49198496 55.30599848 0.48089416 59.65474133 10.32421875 74.046875 C17.63296209 85.91257579 18.52759924 101.05144799 15.82324219 114.546875 C13.6228459 122.49142791 10.09912213 130.08263052 4.32421875 136.046875 C3.70160156 136.70816406 3.07898438 137.36945313 2.4375 138.05078125 C-11.28329334 151.41650785 -29.18473908 155.32798054 -47.69360352 155.29125977 C-64.91776624 155.0623225 -80.41703963 148.2477013 -92.67578125 136.046875 C-97.44905595 130.35956898 -101.82281199 124.73820595 -103.17578125 117.296875 C-101.89643739 108.98113994 -95.1158033 102.9204052 -88.67578125 98.046875 C-85.16246843 96.29021859 -81.51020691 96.50612266 -77.67578125 97.046875 C-74.68329345 98.32308303 -72.23452118 100.05271534 -69.67578125 102.046875 C-68.99773438 102.57410156 -68.3196875 103.10132813 -67.62109375 103.64453125 C-64.12810325 106.49924437 -64.12810325 106.49924437 -62.67578125 108.046875 C-62.67578125 108.706875 -62.67578125 109.366875 -62.67578125 110.046875 C-62.09441406 110.32273437 -61.51304687 110.59859375 -60.9140625 110.8828125 C-58.67578125 112.046875 -58.67578125 112.046875 -56.84375 113.3359375 C-49.90729594 118.01496568 -42.82071932 118.16814951 -34.67578125 117.046875 C-30.41137286 115.51941878 -27.68479203 113.56039116 -25.17578125 109.796875 C-24.19644905 104.41054792 -23.40289547 99.95620366 -26.55078125 95.234375 C-33.08458963 90.66070913 -40.08445368 88.88109989 -47.80078125 87.171875 C-64.97775363 83.35159122 -83.22394127 77.38408609 -93.42578125 62.171875 C-100.48199449 50.2180927 -101.80131428 34.67136803 -98.83984375 21.26171875 C-96.16871873 13.74133656 -92.1339529 7.82203666 -86.67578125 2.046875 C-85.65677734 0.96599609 -85.65677734 0.96599609 -84.6171875 -0.13671875 C-62.7955737 -21.31769802 -22.81691211 -17.72057992 0 0 Z " fill="#FFFDFE" transform="translate(680.67578125,278.953125)"/>
<path d="M0 0 C4.71991247 3.43982495 4.71991247 3.43982495 6 6 C6.556875 5.0925 7.11375 4.185 7.6875 3.25 C10.78612782 -1.10482829 13.67127971 -4.05227458 19 -5 C36.1151401 -6.12989561 36.1151401 -6.12989561 43 -1 C46.3829929 4.15252284 46.43430802 8.63148607 46.40405273 14.58203125 C46.41091599 15.52911957 46.41777924 16.47620789 46.42485046 17.45199585 C46.44310258 20.57231781 46.43928356 23.69213628 46.43359375 26.8125 C46.43815591 28.98673669 46.44346158 31.16097193 46.44947815 33.33520508 C46.45840585 37.88791774 46.45598945 42.44045495 46.44604492 46.99316406 C46.43454871 52.82408578 46.45477888 58.6544025 46.48396206 64.48524475 C46.50231604 68.97371255 46.50203328 73.4620351 46.49632454 77.95053101 C46.49617127 80.10029958 46.5022206 82.25007795 46.51461601 84.39981079 C46.52951077 87.40624883 46.51886003 90.41156555 46.50170898 93.41796875 C46.51137695 94.3033432 46.52104492 95.18871765 46.53100586 96.10092163 C46.46584705 101.56165034 45.61067603 104.65181858 42 109 C37.58984199 113.20515067 32.90854003 112.47897258 27.125 112.4375 C26.14402344 112.45748047 25.16304687 112.47746094 24.15234375 112.49804688 C18.12184303 112.49397771 14.56106668 112.05509626 10 108 C8 105 8 105 8 101 C7.34 101 6.68 101 6 101 C5.74605469 101.60585938 5.49210938 102.21171875 5.23046875 102.8359375 C3.84003936 105.2813276 2.69578184 106.1734924 0.3125 107.625 C-0.65236328 108.23214844 -0.65236328 108.23214844 -1.63671875 108.8515625 C-7.63275916 111.76534082 -13.33454004 112.36075382 -19.875 112.3125 C-20.67292969 112.30686035 -21.47085938 112.3012207 -22.29296875 112.29541016 C-28.00416213 112.17740064 -32.86157036 111.65468772 -38 109 C-38.79277344 108.5978125 -39.58554687 108.195625 -40.40234375 107.78125 C-50.82672972 101.99884792 -58.80760087 94.14358142 -65 84 C-65.38800781 83.36707031 -65.77601563 82.73414063 -66.17578125 82.08203125 C-73.67949434 68.49422646 -75.59061301 51.97655949 -71.375 37.0625 C-64.98930438 19.43002558 -52.95747694 5.7061315 -36 -2.44140625 C-23.65370341 -7.15335721 -11.65085795 -6.08985698 0 0 Z M-23 50 C-23.75608333 52.86272774 -23.81144575 55.14555252 -23 58 C-20.11756811 61.29420787 -18.25851556 62.76884408 -13.9375 63.5625 C-10.32218892 62.87020639 -8.61891584 61.54408967 -6 59 C-4.43064406 55.86128812 -4.64798897 53.46144178 -5 50 C-6.98783437 47.08036827 -8.4314697 45.38897022 -11.9375 44.51953125 C-17.19860022 44.15085567 -19.99110973 45.4866646 -23 50 Z " fill="#FFFEFE" transform="translate(972,319)"/>
<path d="M0 0 C0.93585938 -0.04898437 1.87171875 -0.09796875 2.8359375 -0.1484375 C6.74814401 0.58578613 8.00227539 2.41670625 10.625 5.375 C12.03222065 7.66014187 13.29713456 9.86891048 14.5078125 12.25 C14.84918243 12.90637451 15.19055237 13.56274902 15.54226685 14.23901367 C18.77483753 20.52362524 21.73234003 26.92870643 24.61080933 33.38208008 C26.19684297 36.93681602 27.80118716 40.48330707 29.40234375 44.03125 C29.73925735 44.7790271 30.07617096 45.5268042 30.42329407 46.29724121 C34.58086281 55.51534752 38.82174426 64.69494842 43.0625 73.875 C43.80258217 75.4791618 44.54265403 77.08332835 45.28271484 78.6875 C50.0161531 88.93910691 54.80333575 99.16460805 59.625 109.375 C67.17246656 92.88316421 74.71691555 76.39002613 82.21588135 59.87606812 C83.12732178 57.8698895 84.0398143 55.86419272 84.95263672 53.85864258 C87.93783081 47.29846253 90.9155207 40.73513207 93.87289429 34.16235352 C95.32844127 30.93049619 96.7897354 27.70125591 98.25195312 24.47241211 C98.95198345 22.92296653 99.64946642 21.37236723 100.34423828 19.82055664 C101.31016324 17.66379427 102.28494686 15.5112421 103.26171875 13.359375 C103.68423164 12.40698944 103.68423164 12.40698944 104.11528015 11.43536377 C106.09293395 7.11153017 108.22265101 2.57617449 112.625 0.375 C122.914356 -0.83202061 130.88537645 2.62931844 138.93359375 8.8125 C141.45954789 11.14594493 143.47740697 13.05282468 143.87060547 16.57519531 C143.13101807 23.51506162 140.90427612 28.94081547 137.75 35.125 C137.23187744 36.17284668 136.71375488 37.22069336 136.17993164 38.30029297 C134.68438641 41.31544622 133.17409058 44.32237781 131.65716553 47.32678223 C129.75782926 51.09580395 127.87423699 54.87270771 125.98828125 58.6484375 C123.57901461 63.47176511 121.16795652 68.29408219 118.74072266 73.10839844 C114.00773711 82.50950576 109.40630573 91.96603076 104.87734985 101.46707153 C100.11030854 111.46538411 95.30472388 121.44339394 90.40795898 131.37890625 C89.41527441 133.40152373 88.42975864 135.42767317 87.45092773 137.45703125 C86.00151236 140.45934058 84.52875994 143.44916883 83.05078125 146.4375 C82.62348221 147.3354126 82.19618317 148.2333252 81.75593567 149.15844727 C78.26429733 156.12076011 73.79490007 161.29004996 66.75 164.8125 C58.79069026 166.24517575 52.39636497 166.06743713 45.625 161.375 C39.74702861 155.62986412 36.60397241 148.74114825 33.16436768 141.40368652 C31.33807329 137.50957945 29.47519155 133.63295648 27.6171875 129.75390625 C27.22187836 128.92631805 26.82656921 128.09872986 26.41928101 127.24606323 C21.4985988 116.971495 16.36623487 106.80313402 11.25 96.625 C5.15257719 84.47935006 -0.91841093 72.33096397 -6.7199707 60.04052734 C-10.51315133 52.01843663 -14.48816111 44.09030533 -18.49462891 36.17285156 C-18.97206543 35.22635742 -19.44950195 34.27986328 -19.94140625 33.3046875 C-20.36365479 32.47179199 -20.78590332 31.63889648 -21.22094727 30.78076172 C-23.2389799 26.57392999 -24.67654368 23.0762046 -24.75 18.375 C-24.77835938 17.55 -24.80671875 16.725 -24.8359375 15.875 C-24.19942023 12.42270295 -22.81202517 10.88073069 -20.375 8.375 C-17.46484375 6.390625 -17.46484375 6.390625 -14.3125 4.625 C-13.26964844 4.03203125 -12.22679688 3.4390625 -11.15234375 2.828125 C-7.31595231 0.8208991 -4.28685068 0.15268235 0 0 Z " fill="#FFFDFE" transform="translate(78.375,266.625)"/>
<path d="M0 0 C1.08829102 -0.0103125 2.17658203 -0.020625 3.29785156 -0.03125 C17.31917409 0.12101776 30.7264108 3.87150946 41.24609375 13.5546875 C47.59227383 20.61902652 51.90692596 28.17405481 53.9375 37.4375 C54.11796875 38.06398438 54.2984375 38.69046875 54.484375 39.3359375 C56.70432143 49.63189594 54.44746825 58.36255496 49.3125 67.25 C41.6332175 74.32302335 33.56318198 75.14323272 23.4921875 74.92578125 C22.24116241 74.91870651 20.99013733 74.91163177 19.70120239 74.90434265 C16.4095094 74.88125086 13.11909122 74.83650499 9.82781982 74.78082275 C6.45568265 74.72924853 3.0833572 74.70674815 -0.2890625 74.68164062 C-6.88069802 74.62675639 -13.47149499 74.54326806 -20.0625 74.4375 C-17.80777376 80.41027745 -17.80777376 80.41027745 -13.0625 84.3125 C-12.381875 84.70179688 -11.70125 85.09109375 -11 85.4921875 C-2.56913508 89.60563369 10.7808425 88.66120421 19.70703125 86.54296875 C21.61279478 85.83611282 23.5099199 85.10520913 25.39453125 84.34375 C29.58437633 82.85059476 33.56930454 82.67185688 37.9375 83.4375 C43.10670374 86.07953747 45.80784105 91.1870716 47.9375 96.4375 C49.11638473 101.21773379 49.38632421 105.03822453 47.875 109.75 C41.7022241 118.31223754 32.83560913 120.93081047 22.75 122.6875 C1.25755806 125.28834556 -21.87581057 125.0648091 -39.8125 111.33203125 C-51.95749823 100.8316682 -60.74406656 86.65498234 -62.36352539 70.41967773 C-62.49858724 67.29385401 -62.53051872 64.19102942 -62.5 61.0625 C-62.49170166 59.96268799 -62.48340332 58.86287598 -62.47485352 57.72973633 C-62.30637815 49.63512437 -61.56836464 42.83529176 -58.0625 35.4375 C-57.3509375 33.92736328 -57.3509375 33.92736328 -56.625 32.38671875 C-49.6795519 19.24713304 -39.23488218 10.69953851 -26.0625 4.4375 C-25.11632812 3.98246094 -24.17015625 3.52742188 -23.1953125 3.05859375 C-15.60521867 0.10689059 -8.06475031 0.06362722 0 0 Z " fill="#FFFDFE" transform="translate(271.0625,311.5625)"/>
<path d="M0 0 C12.87 0 25.74 0 39 0 C39 49.83 39 99.66 39 151 C63.75 151 88.5 151 114 151 C114 163.87 114 176.74 114 190 C76.38 190 38.76 190 0 190 C0 127.3 0 64.6 0 0 Z " fill="#FFFFFF" transform="translate(1685,273)"/>
<path d="M0 0 C0.84046875 -0.03738281 1.6809375 -0.07476562 2.546875 -0.11328125 C6.26513813 0.47239892 8.6364254 1.6741618 11.25 4.3125 C13.80326231 7.99110628 15.91905376 11.88467663 18.0625 15.8125 C19.37061782 18.1476415 20.68147323 20.48103413 21.99609375 22.8125 C22.33549988 23.41735229 22.67490601 24.02220459 23.02459717 24.64538574 C27.0563441 31.80256335 31.33751466 38.8066093 35.625 45.8125 C37.0706309 48.17688901 38.51584919 50.54152923 39.9609375 52.90625 C40.57243652 53.90333984 41.18393555 54.90042969 41.81396484 55.92773438 C43.25 58.3125 43.25 58.3125 44.25 60.3125 C46.3786899 55.66857863 48.50603107 51.02404242 50.63220215 46.37896729 C51.37545535 44.75557144 52.11902468 43.13232029 52.86291504 41.50921631 C59.51994063 27.01251394 59.51994063 27.01251394 65.86523438 12.37744141 C67.80080399 7.89118471 70.03952222 3.97035834 74 1 C80.66965738 -1.03795087 85.21475274 0.55332182 91.25 3.3125 C91.34796875 4.54484375 91.4459375 5.7771875 91.546875 7.046875 C92.30569244 15.69756884 93.11818716 23.58793824 96.54296875 31.671875 C98.16533582 37.73110229 95.67361557 43.26946576 93.13671875 48.7265625 C92.8155307 49.43697693 92.49434265 50.14739136 92.16342163 50.8793335 C91.09611325 53.23577963 90.01664735 55.58645512 88.9375 57.9375 C88.17335424 59.62013195 87.41027626 61.30324916 86.64819336 62.98681641 C85.44103374 65.6534156 84.23323775 68.31970578 83.02229309 70.98458862 C78.81242696 80.25207236 74.68653592 89.55620987 70.56436157 98.86294556 C67.22328834 106.40135351 63.86840227 113.93363637 60.51593018 121.46697998 C59.23496141 124.34630329 57.95510613 127.22611992 56.67529297 130.10595703 C54.59929629 134.77546183 52.51715151 139.44218218 50.43063354 144.10699463 C49.65178219 145.85055707 48.87482334 147.5949663 48.09988403 149.340271 C47.03008237 151.74872254 45.95341246 154.15398799 44.875 156.55859375 C44.56545883 157.25960709 44.25591766 157.96062042 43.93699646 158.68287659 C38.5224663 170.68681643 38.5224663 170.68681643 32.25 173.3125 C24.13944426 174.63667237 15.7322722 170.20092395 9.125 165.75 C5.17272229 162.39915585 4.42792478 161.0553541 3.90625 155.9453125 C3.96241732 149.79811183 6.72802542 144.5228742 9.1875 139 C9.68024414 137.86095215 10.17298828 136.7219043 10.68066406 135.54833984 C14.13406971 127.6299361 17.76163384 119.79283795 21.69506836 112.1003418 C23.70975979 108.37632037 23.70975979 108.37632037 23.94555664 104.28466797 C22.82120841 101.09671253 21.11488079 98.23369214 19.4375 95.3125 C19.03644043 94.60738281 18.63538086 93.90226562 18.22216797 93.17578125 C14.20144829 86.14910225 10.02424364 79.21746617 5.84375 72.28515625 C1.75353765 65.49772343 -2.30561413 58.69191112 -6.35675049 51.88110352 C-7.19119971 50.47893647 -8.02642438 49.07723056 -8.86248779 47.67602539 C-24.62946251 21.24887192 -24.62946251 21.24887192 -23.75 15.3125 C-18.91953618 7.49026503 -9.3583235 0.26940628 0 0 Z " fill="#FFFDFE" transform="translate(460.75,311.6875)"/>
<path d="M0 0 C0.82886719 -0.01160156 1.65773438 -0.02320313 2.51171875 -0.03515625 C7.54821728 -0.01113479 11.24602676 0.40973042 15.5 3.375 C19.2436478 7.99267775 19.98497058 11.06433863 19.890625 16.9609375 C19.88496521 17.66272125 19.87930542 18.364505 19.87347412 19.08755493 C19.85124483 21.30909087 19.80108056 23.52895923 19.75 25.75 C19.72991731 27.26429947 19.71166964 28.77862446 19.6953125 30.29296875 C19.65142633 33.98751268 19.58249577 37.68109333 19.5 41.375 C20.22590332 41.35928955 20.95180664 41.3435791 21.69970703 41.32739258 C25.00805788 41.26479645 28.31628381 41.22593088 31.625 41.1875 C32.76710938 41.16236328 33.90921875 41.13722656 35.0859375 41.11132812 C46.20235514 41.01438262 46.20235514 41.01438262 50.5 44.375 C54.10228239 49.37859309 53.98572843 54.38040273 53.9375 60.3125 C53.95748047 61.18068359 53.97746094 62.04886719 53.99804688 62.94335938 C53.99353833 68.90815862 53.14948676 72.59011736 49.5 77.375 C45.77258869 79.30403555 42.70486921 79.61299866 38.54296875 79.5703125 C37.43115234 79.56386719 36.31933594 79.55742187 35.17382812 79.55078125 C33.4480957 79.52564453 33.4480957 79.52564453 31.6875 79.5 C30.51767578 79.49097656 29.34785156 79.48195313 28.14257812 79.47265625 C25.26150947 79.44913732 22.38086011 79.41626852 19.5 79.375 C19.59364965 84.42903538 19.69976907 89.48259821 19.81738281 94.53613281 C19.85563327 96.25481011 19.89049303 97.97356638 19.921875 99.69238281 C19.96761128 102.1650004 20.02559084 104.63707613 20.0859375 107.109375 C20.09748871 107.87618591 20.10903992 108.64299683 20.12094116 109.43304443 C20.25461827 114.71709548 20.25461827 114.71709548 22.5 119.375 C26.23880993 121.24440497 30.7972901 120.73169896 34.921875 120.8984375 C38.86620612 121.42377418 41.22782048 122.10317251 44.5 124.375 C47.53750527 129.54644884 47.96958647 134.02584535 47.875 139.9375 C47.88660156 140.66646484 47.89820313 141.39542969 47.91015625 142.14648438 C47.88432714 146.92917474 47.12023656 150.23515131 44.5 154.375 C41.9375 156.1875 41.9375 156.1875 39.5 157.375 C38.84 157.705 38.18 158.035 37.5 158.375 C20.58175637 159.76277539 6.34355535 157.88207678 -7.75 148.125 C-16.22095555 139.65404445 -19.47718961 126.76867909 -19.61352539 115.02197266 C-19.61336865 113.36099419 -19.60781359 111.70000992 -19.59765625 110.0390625 C-19.5962413 109.15971039 -19.59482635 108.28035828 -19.59336853 107.37435913 C-19.58779877 104.58287058 -19.5752519 101.79146406 -19.5625 99 C-19.55748109 97.10026158 -19.55291887 95.2005219 -19.54882812 93.30078125 C-19.53783925 88.65882286 -19.52059557 84.01692531 -19.5 79.375 C-20.38042969 79.42140625 -21.26085938 79.4678125 -22.16796875 79.515625 C-23.32941406 79.55171875 -24.49085937 79.5878125 -25.6875 79.625 C-27.41033203 79.69460938 -27.41033203 79.69460938 -29.16796875 79.765625 C-33.1441317 79.29948632 -34.6776539 78.14586211 -37.5 75.375 C-40.35831179 70.72374718 -39.86768491 65.22996436 -39.875 59.9375 C-39.89949219 59.00873047 -39.92398437 58.07996094 -39.94921875 57.12304688 C-39.97380506 51.36575196 -39.45365564 47.87817095 -35.5 43.375 C-31.86804504 40.95369669 -30.11650652 41.16477215 -25.8125 41.25 C-24.63300781 41.26804687 -23.45351562 41.28609375 -22.23828125 41.3046875 C-21.33464844 41.32789063 -20.43101563 41.35109375 -19.5 41.375 C-19.52094727 40.4370459 -19.54189453 39.4990918 -19.56347656 38.53271484 C-19.63189373 35.03261375 -19.68191586 31.53322934 -19.71972656 28.03271484 C-19.73976791 26.52153264 -19.76700905 25.01042728 -19.80175781 23.49951172 C-19.85061109 21.31979357 -19.87304224 19.14110569 -19.890625 16.9609375 C-19.91157227 15.6517334 -19.93251953 14.3425293 -19.95410156 12.99365234 C-19.42305854 8.76186759 -18.16526489 6.66252463 -15.5 3.375 C-10.51607809 -0.09908674 -5.85588172 -0.08196413 0 0 Z " fill="#FFFEFE" transform="translate(1172.5,273.625)"/>
<path d="M0 0 C3.97257643 3.34969859 4.74495589 5.58072449 5.2734375 10.59375 C5.58067857 19.38557136 3.67238317 26.5086935 -1.24609375 33.86328125 C-3.49068641 36.22776313 -5.70863979 36.96397584 -8.875 37.35546875 C-14.20682488 37.49268483 -18.0702865 36.98904579 -23 35 C-28.11143369 34.36014076 -33.18621448 33.960314 -37.5625 37 C-38.366875 37.66 -39.17125 38.32 -40 39 C-40.66 39 -41.32 39 -42 39 C-43.76011668 42.80283903 -44.24662464 45.77114325 -44.23950195 49.94848633 C-44.24323318 51.12353226 -44.24696442 52.29857819 -44.25080872 53.50923157 C-44.24667465 54.77075546 -44.24254059 56.03227936 -44.23828125 57.33203125 C-44.24975411 59.32733089 -44.26125653 61.32263086 -44.27447033 63.31791973 C-44.30458604 68.22408508 -44.31536395 73.13013318 -44.30541992 78.03637695 C-44.30068213 80.79253126 -44.30921042 83.54805778 -44.33183289 86.30412292 C-44.35237217 88.89397679 -44.35340704 91.48407911 -44.33235168 94.07392883 C-44.41133615 101.16820591 -44.93597998 106.69001662 -50 112 C-55.20369871 115.14185582 -60.13123895 115.27670805 -66.125 115.375 C-66.80602783 115.38917969 -67.48705566 115.40335937 -68.1887207 115.41796875 C-72.85378396 115.37256115 -76.04124389 114.44288484 -80 112 C-84.88720053 106.58445347 -85.15575695 102.98103055 -85.17700195 95.87207031 C-85.18357315 94.9255661 -85.19014435 93.97906189 -85.19691467 93.00387573 C-85.21667456 89.86195807 -85.22831663 86.72008828 -85.23828125 83.578125 C-85.24235678 82.50625694 -85.2464323 81.43438889 -85.25063133 80.33003998 C-85.27150414 74.65622652 -85.28580029 68.98243732 -85.29516602 63.30859375 C-85.30622939 57.44622584 -85.34062527 51.58423763 -85.38033772 45.72200394 C-85.40647791 41.21640311 -85.41485559 36.71089307 -85.41844749 32.20522308 C-85.42332062 30.04427274 -85.43495517 27.88332664 -85.45348549 25.72245026 C-85.47781983 22.6964966 -85.47692204 19.67152926 -85.4699707 16.64550781 C-85.48278076 15.75384918 -85.49559082 14.86219055 -85.50878906 13.94351196 C-85.46294563 8.46417517 -84.64146804 5.35414723 -81 1 C-76.06919084 -3.33313532 -71.42806581 -3.2100923 -65.1875 -3.25 C-64.39279297 -3.270625 -63.59808594 -3.29125 -62.77929688 -3.3125 C-57.75647358 -3.34573622 -54.35238399 -2.77811744 -50 0 C-47.51477012 2.68673501 -46.1581762 4.52547139 -45 8 C-44.5153125 7.54109375 -44.030625 7.0821875 -43.53125 6.609375 C-31.32000704 -4.56860894 -15.30353082 -8.40397285 0 0 Z " fill="#FFFDFE" transform="translate(425,317)"/>
<path d="M0 0 C4.61748358 5.04792696 5.3466042 8.22501444 5.28515625 14.9140625 C4.61028216 22.21749448 1.64880671 29.33426683 -3 35 C-6.17369843 37.02088894 -8.70999357 37.27067965 -12.4375 37.25 C-13.36433594 37.25515625 -14.29117187 37.2603125 -15.24609375 37.265625 C-18.18161373 36.98248265 -20.28504191 36.11163638 -23 35 C-30.31699977 33.84701822 -35.2306171 35.00601152 -41.22265625 39.296875 C-43.91225299 41.87415891 -44.90412252 43.99088197 -45.25828552 47.71847534 C-45.26256058 48.75738922 -45.26683563 49.7963031 -45.27124023 50.86669922 C-45.28142685 52.04827606 -45.29161346 53.22985291 -45.30210876 54.44723511 C-45.30424881 55.7201944 -45.30638885 56.99315369 -45.30859375 58.3046875 C-45.3273128 60.3091571 -45.34604876 62.3136267 -45.36577702 64.31808662 C-45.41110428 69.25606982 -45.43473864 74.19418895 -45.45629883 79.13232422 C-45.46912948 81.90451311 -45.48984624 84.67644753 -45.51856995 87.44851685 C-45.5447958 90.05720473 -45.55870659 92.66605213 -45.5589447 95.27487183 C-45.57228348 96.46275299 -45.58562225 97.65063416 -45.59936523 98.87451172 C-45.60697121 100.43526932 -45.60697121 100.43526932 -45.61473083 102.02755737 C-46.07401201 105.57102011 -47.15790946 107.94991419 -49 111 C-56.18853771 116.46328866 -65.33644397 116.03465328 -74 115 C-78.38864608 113.89974788 -81.12672586 112.33237421 -83.67105103 108.45043945 C-85.39268475 103.98044623 -85.4207456 100.16537963 -85.38818359 95.41796875 C-85.39344055 94.47088043 -85.39869751 93.52379211 -85.40411377 92.54800415 C-85.41728188 89.4276667 -85.40858682 86.30784235 -85.3984375 83.1875 C-85.40045915 81.01326398 -85.40337134 78.83902862 -85.40713501 76.66479492 C-85.41155405 72.11207614 -85.40514069 67.55953415 -85.39111328 63.00683594 C-85.37402181 57.17599921 -85.38386522 51.34557678 -85.40183067 45.51475525 C-85.41267975 41.02629484 -85.40921697 36.53793238 -85.4014473 32.04946899 C-85.39944841 29.89970857 -85.40189362 27.7499392 -85.40888596 25.60018921 C-85.41651876 22.59389747 -85.4048702 19.58827337 -85.38818359 16.58203125 C-85.39425629 15.6966568 -85.40032898 14.81128235 -85.40658569 13.89907837 C-85.35472052 8.84611386 -84.76982462 5.39589429 -82 1 C-77.73156665 -3.11441772 -72.22785683 -3.30680471 -66.5625 -3.4375 C-52.8199301 -2.99992563 -52.8199301 -2.99992563 -48.34765625 1.7578125 C-46.9375 3.6875 -46.9375 3.6875 -45 7 C-44.53851562 6.62488281 -44.07703125 6.24976563 -43.6015625 5.86328125 C-30.22057363 -4.63524164 -16.03801229 -7.9733138 0 0 Z " fill="#FFFEFE" transform="translate(1121,317)"/>
<path d="M0 0 C1.09828125 0.00193359 1.09828125 0.00193359 2.21875 0.00390625 C8.23326824 1.14707667 10.89513556 4.97213754 14.20507812 9.74414062 C14.73552734 10.52982422 15.26597656 11.31550781 15.8125 12.125 C16.63717773 13.32092773 16.63717773 13.32092773 17.47851562 14.54101562 C18.82795313 16.50063356 20.16797351 18.46602444 21.5 20.4375 C25.43219948 16.80021548 28.23317544 12.57347778 31.14453125 8.12695312 C33.27309953 4.9560447 35.13896153 2.32520654 38.5 0.4375 C42.78612772 -0.34458413 46.52075343 0.00907962 50.5 1.75 C52.5 3.4375 52.5 3.4375 53.5 6.4375 C53.60284456 8.21593766 53.64848076 9.99793295 53.66113281 11.77929688 C53.67074036 12.87052856 53.6803479 13.96176025 53.69024658 15.08605957 C53.69449646 16.26422241 53.69874634 17.44238525 53.703125 18.65625 C53.70882507 19.86567261 53.71452515 21.07509521 53.72039795 22.32116699 C53.72984865 24.87995528 53.73638221 27.43875575 53.74023438 29.99755859 C53.74996099 33.92176332 53.78099313 37.84544902 53.8125 41.76953125 C53.81902786 44.25260105 53.82427918 46.7356746 53.828125 49.21875 C53.8404718 50.39691284 53.8528186 51.57507568 53.86553955 52.78894043 C53.86253845 53.88017212 53.85953735 54.97140381 53.85644531 56.09570312 C53.86191376 57.53774109 53.86191376 57.53774109 53.86749268 59.00891113 C53.5 61.4375 53.5 61.4375 52.16497803 63.24645996 C49.55461987 65.11377654 47.21940008 64.83399989 44.0625 64.8125 C42.92941406 64.82023437 41.79632812 64.82796875 40.62890625 64.8359375 C35.71263569 64.20989556 35.71263569 64.20989556 33.5 61.4375 C32.87063721 58.38136679 32.80296734 55.36303493 32.75 52.25 C32.72035156 51.40501953 32.69070313 50.56003906 32.66015625 49.68945312 C32.5895301 47.60598178 32.54249205 45.52173494 32.5 43.4375 C31.736875 44.22125 30.97375 45.005 30.1875 45.8125 C27.4083522 48.52701645 25.60598584 50.23641167 21.75 50.9375 C17.12868313 50.22652817 14.74114219 47.65946383 11.5 44.4375 C11.47421875 45.62988281 11.4484375 46.82226562 11.421875 48.05078125 C11.36559561 49.6172242 11.30824823 51.18362903 11.25 52.75 C11.22873047 53.92852539 11.22873047 53.92852539 11.20703125 55.13085938 C10.96302201 60.86507661 10.96302201 60.86507661 8.86328125 63.4609375 C5.76736569 64.74024145 3.28239061 64.79946937 -0.0625 64.75 C-1.76599609 64.74419922 -1.76599609 64.74419922 -3.50390625 64.73828125 C-6.5 64.4375 -6.5 64.4375 -9.5 62.4375 C-11.97612388 56.54603283 -10.62486663 48.23012924 -10.54150391 41.92871094 C-10.51101419 39.3639879 -10.49009345 36.80015677 -10.47802734 34.23535156 C-10.45803542 30.40736607 -10.40949298 26.58048023 -10.34539795 22.75299072 C-10.32351129 21.21251929 -10.31000779 19.67190536 -10.30499268 18.13128662 C-10.29572301 15.94063495 -10.25492065 13.75260393 -10.20703125 11.5625 C-10.1913208 10.28632813 -10.17561035 9.01015625 -10.15942383 7.6953125 C-9.5 4.4375 -9.5 4.4375 -7.09838867 2.02319336 C-4.41127317 0.38335354 -3.10076297 -0.08188635 0 0 Z " fill="#FF65C4" transform="translate(1307.5,243.5625)"/>
<path d="M0 0 C1.64198364 -0.00574036 1.64198364 -0.00574036 3.31713867 -0.01159668 C5.63038045 -0.01431736 7.94365292 -0.00694534 10.25683594 0.00976562 C13.79952522 0.0311716 17.34018636 0.00996774 20.8828125 -0.015625 C23.13021281 -0.01298175 25.37761187 -0.00785684 27.625 0 C28.68549561 -0.00809692 29.74599121 -0.01619385 30.83862305 -0.02453613 C38.14726272 0.0687517 38.14726272 0.0687517 41.47851562 2.38476562 C43.24379821 5.22524229 43.34580386 7.2008643 43.3125 10.53125 C43.3228125 11.5625 43.333125 12.59375 43.34375 13.65625 C42.66927903 17.30632821 41.75594268 18.29812964 38.8125 20.53125 C35.359375 20.921875 35.359375 20.921875 31.5625 20.78125 C30.29921875 20.74515625 29.0359375 20.7090625 27.734375 20.671875 C26.28804687 20.60226562 26.28804687 20.60226562 24.8125 20.53125 C24.82821045 22.11993896 24.82821045 22.11993896 24.84423828 23.74072266 C24.88056788 27.6879536 24.90344748 31.63516989 24.92236328 35.58251953 C24.9323914 37.28762298 24.94601726 38.99270936 24.96337891 40.69775391 C24.98776803 43.15531642 24.99901512 45.61265061 25.0078125 48.0703125 C25.01813507 48.82680084 25.02845764 49.58328918 25.03909302 50.36270142 C25.04002491 54.80615421 24.56752089 58.43671466 22.8125 62.53125 C20.04934284 65.29440716 18.29013277 64.86296199 14.4375 64.90625 C13.29539062 64.93460937 12.15328125 64.96296875 10.9765625 64.9921875 C7.8125 64.53125 7.8125 64.53125 5.63916016 63.07373047 C2.91831912 59.28666303 3.31193564 55.93996915 3.421875 51.390625 C3.42753479 50.50844299 3.43319458 49.62626099 3.43902588 48.71734619 C3.46138409 45.90475787 3.51157868 43.09345205 3.5625 40.28125 C3.58256575 38.37241426 3.60081639 36.46355851 3.6171875 34.5546875 C3.661247 29.87971555 3.73027016 25.20570008 3.8125 20.53125 C2.77609375 20.57765625 1.7396875 20.6240625 0.671875 20.671875 C-0.69788779 20.70940275 -2.06768182 20.74580184 -3.4375 20.78125 C-4.46037109 20.83152344 -4.46037109 20.83152344 -5.50390625 20.8828125 C-8.97250507 20.95016393 -10.8265625 20.80159363 -13.63867188 18.6953125 C-15.67380613 15.85177056 -15.72222957 14.00420731 -15.6875 10.53125 C-15.6978125 9.5 -15.708125 8.46875 -15.71875 7.40625 C-14.15231662 -1.0709189 -7.03739323 -0.05373076 0 0 Z " fill="#FF65C3" transform="translate(1250.1875,243.46875)"/>
<path d="M0 0 C4.34980744 3.0931964 8.40352749 7.18205498 10.8125 12 C11.50812205 19.41236614 11.39244378 25.88355896 6.8125 32 C1.0337032 37.35595801 -3.04312202 38.57139428 -10.81640625 38.44140625 C-16.04156297 37.75723162 -19.4729523 35.67443379 -23.1875 32 C-27.1853761 26.72146722 -28.72726949 21.58518782 -28.1875 15 C-26.13896601 8.3585745 -21.77492447 3.95823705 -16.1875 0 C-10.85743699 -1.77668767 -5.34894969 -1.67810186 0 0 Z M-17.1875 15 C-17.94358333 17.86272774 -17.99894575 20.14555252 -17.1875 23 C-14.30506811 26.29420787 -12.44601556 27.76884408 -8.125 28.5625 C-4.50968892 27.87020639 -2.80641584 26.54408967 -0.1875 24 C1.38185594 20.86128812 1.16451103 18.46144178 0.8125 15 C-1.17533437 12.08036827 -2.6189697 10.38897022 -6.125 9.51953125 C-11.38610022 9.15085567 -14.17860973 10.4866646 -17.1875 15 Z " fill="#FF68C5" transform="translate(966.1875,354)"/>
<path d="M0 0 C4.17431193 3.13073394 4.17431193 3.13073394 5 6.25 C5.33323023 9.44901022 5.36214541 11.5039855 3.94995117 14.41308594 C1.07585826 17.12056998 -1.77433892 16.74986071 -5.51171875 16.640625 C-6.23994339 16.63496521 -6.96816803 16.62930542 -7.71846008 16.62347412 C-10.04214498 16.60110029 -12.36428207 16.55090669 -14.6875 16.5 C-16.26364959 16.47993609 -17.83982337 16.46168512 -19.41601562 16.4453125 C-23.27793924 16.40123283 -27.1387073 16.33220225 -31 16.25 C-30.13787296 9.15339815 -28.41344949 6.68650001 -23 2.25 C-16.40395339 -2.35189299 -7.33939431 -3.92357558 0 0 Z " fill="#FF67C4" transform="translate(282,348.75)"/>
</svg>
